<svg xmlns="http://www.w3.org/2000/svg" width="375" viewBox="0 0 375 375" height="375" version="1.0"><defs><clipPath id="a"><path d="M 202 136 L 257 136 L 257 190 L 202 190 Z M 202 136"/></clipPath><clipPath id="b"><path d="M 220.726562 132.121094 L 261.945312 146.027344 L 242.761719 202.878906 L 201.546875 188.972656 Z M 220.726562 132.121094"/></clipPath><clipPath id="c"><path d="M 220.726562 132.121094 L 261.945312 146.027344 L 242.761719 202.878906 L 201.546875 188.972656 Z M 220.726562 132.121094"/></clipPath></defs><g clip-path="url(#a)"><g clip-path="url(#b)"><g clip-path="url(#c)"><path fill="#DE89A1" d="M 256.386719 162.042969 C 256.402344 161.878906 256.300781 161.804688 256.152344 161.753906 C 256 161.703125 255.851562 161.652344 255.703125 161.601562 C 255.476562 161.527344 255.289062 161.464844 255.066406 161.390625 C 254.605469 161.273438 254.179688 161.171875 253.71875 161.058594 C 253.644531 161.035156 253.519531 161.03125 253.445312 161.007812 C 253.105469 160.894531 252.71875 160.804688 252.371094 160.730469 C 252.132812 160.691406 251.910156 160.613281 251.671875 160.578125 C 251.472656 160.550781 251.246094 160.476562 251.046875 160.449219 C 250.148438 160.269531 249.261719 160.054688 248.328125 159.863281 C 247.816406 159.773438 247.304688 159.683594 246.816406 159.644531 C 246.378906 159.582031 245.945312 159.515625 245.492188 159.492188 C 245.042969 159.464844 244.621094 159.488281 244.15625 159.496094 C 243.695312 159.507812 243.234375 159.519531 242.769531 159.527344 C 242.472656 159.550781 242.183594 159.539062 241.921875 159.574219 C 241.671875 159.574219 241.449219 159.621094 241.222656 159.671875 C 240.785156 159.730469 240.335938 159.828125 239.886719 159.929688 C 239.625 159.964844 239.347656 160.039062 239.125 160.085938 C 238.734375 160.121094 238.335938 160.195312 237.9375 160.269531 C 237.011719 160.414062 236.050781 160.546875 235.125 160.691406 C 234.414062 160.828125 233.699219 160.960938 232.976562 161.132812 C 233.550781 160.660156 234.117188 160.226562 234.617188 159.730469 C 234.992188 159.359375 235.332031 158.972656 235.667969 158.589844 C 235.996094 158.242188 236.28125 157.878906 236.570312 157.519531 C 237.148438 156.800781 237.75 156.128906 238.289062 155.394531 C 238.578125 155.035156 238.839844 154.625 239.066406 154.203125 C 239.28125 153.816406 239.492188 153.429688 239.71875 153.007812 C 239.957031 152.546875 240.160156 152.074219 240.398438 151.613281 C 240.574219 151.214844 240.738281 150.855469 240.914062 150.457031 C 241 150.320312 241.050781 150.167969 241.140625 150.03125 C 241.578125 149.222656 242.03125 148.378906 242.410156 147.507812 C 242.597656 147.070312 242.734375 146.660156 242.886719 146.210938 C 242.964844 145.988281 243 145.75 243.039062 145.515625 C 243.066406 145.316406 243.117188 145.042969 243.003906 144.878906 C 242.953125 144.777344 242.867188 144.667969 242.71875 144.617188 C 242.605469 144.578125 242.519531 144.589844 242.394531 144.589844 C 242.179688 144.601562 241.980469 144.699219 241.78125 144.796875 C 241.582031 144.898438 241.417969 145.007812 241.21875 145.109375 C 240.792969 145.378906 240.402344 145.664062 240.054688 145.964844 C 239.703125 146.261719 239.328125 146.507812 239.015625 146.820312 C 238.839844 146.96875 238.703125 147.128906 238.527344 147.277344 C 238.339844 147.464844 238.136719 147.6875 237.988281 147.886719 C 237.660156 148.234375 237.375 148.59375 237.085938 148.957031 C 236.796875 149.316406 236.546875 149.6875 236.269531 150.011719 C 235.980469 150.371094 235.691406 150.734375 235.429688 151.144531 C 235.179688 151.515625 234.890625 151.875 234.640625 152.25 C 234.386719 152.621094 234.113281 152.945312 233.863281 153.320312 C 233.609375 153.691406 233.359375 154.066406 233.109375 154.4375 C 232.859375 154.8125 232.605469 155.183594 232.34375 155.59375 C 232.09375 155.96875 231.84375 156.339844 231.617188 156.761719 C 231.402344 157.148438 231.152344 157.523438 230.9375 157.90625 C 230.675781 158.316406 230.449219 158.742188 230.261719 159.175781 C 230.082031 159.574219 229.90625 159.972656 229.730469 160.371094 C 229.554688 160.769531 229.417969 161.179688 229.253906 161.542969 C 229.039062 161.925781 228.800781 162.261719 228.5625 162.597656 C 227.988281 162.820312 227.375 163.03125 226.761719 163.238281 C 226.339844 163.386719 225.914062 163.535156 225.488281 163.683594 C 224.976562 163.84375 224.488281 164.050781 224 164.261719 C 223.5625 164.445312 223.164062 164.644531 222.726562 164.832031 C 222.273438 165.050781 221.863281 165.289062 221.4375 165.558594 C 220.972656 165.820312 220.535156 166.128906 220.109375 166.402344 C 219.734375 166.652344 219.347656 166.9375 218.957031 167.21875 C 218.847656 167.308594 218.695312 167.382812 218.582031 167.46875 C 218.972656 167.058594 219.359375 166.648438 219.75 166.238281 C 220.261719 165.703125 220.777344 165.171875 221.25 164.625 C 221.867188 164.039062 222.441406 163.445312 223.019531 162.847656 C 223.78125 162.066406 224.496094 161.183594 225.199219 160.339844 C 225.863281 159.480469 226.527344 158.625 227.203125 157.730469 C 227.503906 157.332031 227.820312 156.898438 228.09375 156.449219 C 228.257812 156.210938 228.382812 155.964844 228.507812 155.714844 C 228.648438 155.429688 228.773438 155.179688 228.910156 154.894531 C 229.113281 154.421875 229.3125 153.949219 229.515625 153.476562 C 229.730469 152.964844 229.945312 152.453125 230.15625 151.945312 C 230.558594 151 230.898438 149.988281 231.191406 149.003906 C 231.367188 148.484375 231.53125 147.996094 231.667969 147.460938 C 231.808594 146.925781 231.984375 146.402344 232.085938 145.855469 C 232.1875 145.308594 232.289062 144.757812 232.355469 144.199219 C 232.417969 143.636719 232.519531 143.089844 232.609375 142.578125 C 232.699219 142.066406 232.75 141.542969 232.839844 141.03125 C 232.863281 140.832031 232.890625 140.632812 232.914062 140.433594 C 232.964844 140.285156 233.003906 140.171875 233.015625 140.011719 C 233.078125 139.699219 233.144531 139.386719 233.195312 139.113281 C 233.269531 138.640625 233.359375 138.128906 233.347656 137.667969 C 233.324219 137.492188 233.335938 137.332031 233.3125 137.15625 C 233.300781 137.070312 233.289062 136.980469 233.277344 136.894531 C 233.238281 136.757812 233.191406 136.53125 233.050781 136.445312 C 233.054688 136.320312 232.953125 136.246094 232.839844 136.207031 C 232.730469 136.167969 232.566406 136.15625 232.464844 136.207031 C 232.367188 136.253906 232.277344 136.265625 232.179688 136.316406 C 232.128906 136.339844 232.078125 136.367188 232.066406 136.402344 C 231.902344 136.515625 231.753906 136.589844 231.589844 136.699219 C 231.203125 136.984375 230.800781 137.308594 230.4375 137.644531 C 230.027344 138.003906 229.585938 138.3125 229.199219 138.722656 C 229 138.945312 228.8125 139.132812 228.585938 139.304688 C 228.398438 139.492188 228.210938 139.679688 228.023438 139.863281 C 227.621094 140.3125 227.21875 140.757812 226.820312 141.207031 C 226.820312 141.207031 226.804688 141.242188 226.804688 141.242188 C 226.804688 141.242188 226.792969 141.28125 226.792969 141.28125 C 226.730469 141.34375 226.71875 141.382812 226.65625 141.441406 C 226.441406 141.703125 226.191406 141.953125 225.980469 142.214844 C 225.816406 142.449219 225.628906 142.636719 225.464844 142.871094 C 225.300781 143.109375 225.140625 143.34375 224.988281 143.542969 C 224.824219 143.78125 224.675781 143.976562 224.472656 144.203125 C 224.125 144.625 223.796875 145.097656 223.472656 145.570312 C 223.144531 146.042969 222.855469 146.527344 222.515625 147.035156 C 221.914062 147.957031 221.335938 148.925781 220.761719 149.898438 C 220.171875 150.902344 219.59375 151.875 218.964844 152.871094 C 218.675781 153.355469 218.402344 153.800781 218.113281 154.285156 C 217.824219 154.773438 217.546875 155.21875 217.257812 155.703125 C 216.679688 156.675781 216.179688 157.671875 215.636719 158.652344 C 215.386719 159.152344 215.148438 159.609375 214.898438 160.109375 C 214.632812 160.644531 214.355469 161.214844 214.09375 161.75 C 213.839844 162.25 213.613281 162.796875 213.4375 163.320312 C 213.261719 163.84375 213.0625 164.316406 212.882812 164.839844 C 212.671875 165.347656 212.492188 165.871094 212.28125 166.382812 C 212.027344 166.878906 211.863281 167.363281 211.6875 167.886719 C 211.511719 168.410156 211.324219 168.972656 211.148438 169.496094 C 210.96875 170.015625 210.804688 170.503906 210.628906 171.027344 C 210.554688 171.25 210.492188 171.4375 210.378906 171.648438 C 210.140625 172.109375 209.925781 172.617188 209.722656 173.089844 C 209.511719 173.601562 209.308594 174.074219 209.09375 174.585938 C 209.019531 174.808594 208.90625 175.019531 208.792969 175.234375 C 208.582031 175.367188 208.40625 175.515625 208.179688 175.691406 C 207.84375 175.953125 207.554688 176.3125 207.242188 176.621094 C 206.878906 176.957031 206.550781 177.304688 206.261719 177.664062 C 205.675781 178.421875 205.183594 179.257812 204.769531 180.117188 C 204.582031 180.550781 204.40625 180.949219 204.214844 181.386719 C 204.066406 181.832031 203.925781 182.246094 203.777344 182.691406 C 203.625 183.140625 203.484375 183.550781 203.371094 184.011719 C 203.257812 184.472656 203.15625 184.898438 203.082031 185.371094 C 203.082031 185.371094 203.066406 185.40625 203.066406 185.40625 C 203.066406 185.40625 203.054688 185.445312 203.054688 185.445312 C 203.015625 185.558594 203.003906 185.71875 202.953125 185.867188 C 202.917969 185.980469 202.878906 186.09375 202.839844 186.203125 C 202.765625 186.429688 202.714844 186.703125 202.714844 186.953125 C 202.6875 187.027344 202.75 187.089844 202.8125 187.152344 C 202.824219 187.238281 202.8125 187.277344 202.824219 187.363281 C 202.8125 187.652344 202.761719 187.925781 202.796875 188.1875 C 202.820312 188.363281 202.832031 188.574219 202.859375 188.75 C 202.871094 188.835938 202.917969 188.9375 202.96875 189.035156 C 203.019531 189.136719 203.105469 189.25 203.207031 189.324219 C 203.21875 189.410156 203.242188 189.460938 203.304688 189.523438 C 203.367188 189.585938 203.40625 189.597656 203.480469 189.625 C 203.515625 189.636719 203.554688 189.648438 203.589844 189.660156 C 203.714844 189.664062 203.804688 189.648438 203.878906 189.550781 C 203.941406 189.488281 203.953125 189.453125 203.980469 189.375 C 204.015625 189.265625 204.03125 189.101562 204.066406 188.992188 C 204.09375 188.914062 204.132812 188.804688 204.117188 188.714844 C 204.144531 188.515625 204.171875 188.316406 204.195312 188.117188 C 204.234375 187.757812 204.308594 187.40625 204.363281 187.007812 C 204.488281 186.511719 204.578125 186 204.742188 185.515625 C 204.929688 184.828125 205.167969 184.121094 205.398438 183.449219 C 205.472656 183.222656 205.546875 183 205.625 182.773438 C 205.625 182.773438 205.636719 182.738281 205.671875 182.75 C 205.6875 182.714844 205.734375 182.6875 205.734375 182.6875 C 205.75 182.652344 205.761719 182.613281 205.761719 182.613281 C 205.863281 182.4375 205.925781 182.253906 206.023438 182.078125 C 206.023438 182.078125 206.011719 182.117188 206.011719 182.117188 C 206.050781 182.003906 206.125 181.90625 206.164062 181.792969 C 206.351562 181.730469 206.5 181.65625 206.675781 181.632812 C 206.863281 181.570312 207.089844 181.523438 207.277344 181.460938 C 207.550781 181.386719 207.824219 181.3125 208.074219 181.191406 C 208.3125 181.101562 208.5 181.042969 208.714844 180.90625 C 208.914062 180.804688 209.125 180.671875 209.328125 180.570312 C 210.191406 180.113281 211.050781 179.65625 211.941406 179.25 C 212.390625 179.027344 212.828125 178.839844 213.242188 178.605469 C 213.679688 178.421875 214.089844 178.183594 214.53125 178 C 215.40625 177.628906 216.292969 177.222656 217.230469 176.914062 C 218.167969 176.605469 219.144531 176.3125 220.09375 175.964844 C 220.53125 175.78125 220.96875 175.597656 221.441406 175.421875 C 221.917969 175.25 222.355469 175.066406 222.816406 174.929688 C 222.917969 174.878906 223.054688 174.84375 223.15625 174.792969 C 223.480469 174.695312 223.769531 174.585938 224.09375 174.488281 C 224.65625 174.300781 225.179688 174.105469 225.707031 173.90625 C 226.179688 173.734375 226.644531 173.476562 227.058594 173.238281 C 227.269531 173.105469 227.507812 173.015625 227.707031 172.917969 C 227.945312 172.832031 228.195312 172.707031 228.40625 172.574219 C 228.507812 172.523438 228.621094 172.4375 228.695312 172.335938 C 228.757812 172.273438 228.832031 172.175781 228.871094 172.0625 C 228.871094 172.0625 228.871094 172.0625 228.882812 172.027344 C 228.972656 171.765625 228.859375 171.476562 228.660156 171.328125 C 228.523438 171.238281 228.398438 171.238281 228.25 171.1875 C 228.011719 171.148438 227.75 171.0625 227.511719 171.023438 C 227.238281 170.972656 226.964844 170.921875 226.691406 170.871094 C 226.453125 170.832031 226.164062 170.816406 225.929688 170.777344 C 225.402344 170.726562 224.890625 170.761719 224.355469 170.746094 C 223.84375 170.78125 223.292969 170.804688 222.78125 170.839844 C 222.304688 170.886719 221.792969 170.921875 221.308594 171.007812 C 221.042969 171.046875 220.820312 171.09375 220.542969 171.167969 C 220.28125 171.203125 220.042969 171.289062 219.769531 171.363281 C 219.308594 171.5 218.859375 171.597656 218.394531 171.730469 C 217.382812 172.015625 216.382812 172.382812 215.417969 172.765625 C 214.894531 172.964844 214.355469 173.199219 213.820312 173.433594 C 213.933594 173.347656 214.042969 173.257812 214.15625 173.171875 C 214.507812 172.875 214.910156 172.550781 215.296875 172.265625 C 215.648438 171.96875 216.023438 171.722656 216.410156 171.4375 C 216.785156 171.1875 217.171875 170.902344 217.550781 170.65625 C 217.863281 170.46875 218.1875 170.246094 218.488281 170.097656 C 218.851562 169.886719 219.199219 169.714844 219.5625 169.503906 C 219.925781 169.292969 220.328125 169.097656 220.6875 168.886719 C 221.039062 168.714844 221.363281 168.488281 221.726562 168.28125 C 222.140625 168.042969 222.539062 167.847656 222.953125 167.613281 C 223.402344 167.390625 223.816406 167.152344 224.265625 166.929688 C 224.941406 166.535156 225.679688 166.203125 226.378906 165.855469 C 226.441406 165.917969 226.46875 165.96875 226.53125 166.03125 C 226.765625 166.320312 227.027344 166.53125 227.289062 166.746094 C 227.328125 166.757812 227.351562 166.808594 227.390625 166.820312 C 227.390625 166.820312 227.390625 166.820312 227.351562 166.808594 C 227.636719 167.070312 227.9375 167.296875 228.222656 167.558594 C 228.386719 167.695312 228.523438 167.785156 228.695312 167.886719 C 228.871094 167.984375 229.007812 168.074219 229.195312 168.136719 C 229.582031 168.351562 229.980469 168.527344 230.378906 168.703125 C 230.667969 168.839844 230.964844 168.941406 231.265625 169.042969 C 231.339844 169.070312 231.378906 169.082031 231.453125 169.105469 C 231.714844 169.195312 232.015625 169.296875 232.277344 169.382812 C 232.835938 169.574219 233.4375 169.777344 234.035156 169.976562 C 234.722656 170.167969 235.40625 170.359375 236.117188 170.472656 C 236.417969 170.574219 236.730469 170.636719 237.003906 170.6875 C 238.054688 170.917969 239.089844 171.058594 240.152344 171.125 C 240.636719 171.164062 241.148438 171.128906 241.648438 171.132812 C 242.148438 171.132812 242.660156 171.097656 243.160156 171.101562 C 243.671875 171.066406 244.210938 171.082031 244.722656 171.046875 C 245.234375 171.011719 245.746094 170.976562 246.257812 170.941406 C 246.558594 170.917969 246.808594 170.917969 247.105469 170.894531 C 247.320312 170.882812 247.53125 170.871094 247.757812 170.820312 C 247.894531 170.785156 248.070312 170.761719 248.207031 170.722656 C 248.519531 170.664062 248.804688 170.550781 249.117188 170.492188 C 249.304688 170.429688 249.53125 170.378906 249.730469 170.28125 C 249.867188 170.246094 249.980469 170.15625 250.117188 170.121094 C 250.269531 170.046875 250.46875 169.949219 250.621094 169.875 C 250.84375 169.824219 251.082031 169.738281 251.308594 169.6875 C 251.667969 169.605469 252.007812 169.46875 252.320312 169.28125 C 252.582031 169.121094 252.792969 168.984375 252.996094 168.761719 C 253.070312 168.660156 253.171875 168.613281 253.207031 168.5 C 253.296875 168.363281 253.359375 168.175781 253.371094 168.015625 C 253.359375 167.925781 253.398438 167.816406 253.347656 167.714844 C 253.324219 167.539062 253.25 167.390625 253.113281 167.304688 C 252.988281 167.179688 252.851562 167.089844 252.726562 166.964844 C 252.441406 166.703125 252.140625 166.351562 251.753906 166.261719 C 251.640625 166.222656 251.515625 166.222656 251.378906 166.261719 C 251.265625 166.222656 251.191406 166.199219 251.082031 166.160156 C 250.519531 165.96875 249.921875 165.769531 249.359375 165.578125 C 249.210938 165.527344 249.058594 165.476562 248.910156 165.425781 C 248.660156 165.300781 248.398438 165.214844 248.148438 165.085938 C 247.710938 164.898438 247.214844 164.773438 246.75 164.65625 C 246.203125 164.554688 245.691406 164.464844 245.140625 164.363281 C 244.179688 164.246094 243.21875 164.132812 242.269531 163.976562 C 242.269531 163.976562 242.234375 163.964844 242.234375 163.964844 C 241.609375 163.839844 240.949219 163.699219 240.324219 163.570312 C 239.664062 163.429688 239.050781 163.265625 238.378906 163.164062 C 238.066406 163.101562 237.742188 163.074219 237.414062 163.046875 C 237.089844 163.019531 236.753906 163.03125 236.417969 163.042969 C 236.367188 163.066406 236.292969 163.042969 236.242188 163.066406 C 236.167969 163.042969 236.078125 163.054688 236.003906 163.027344 C 235.566406 162.964844 235.167969 162.914062 234.757812 162.898438 C 234.804688 162.875 234.855469 162.847656 234.945312 162.835938 C 235.855469 162.605469 236.792969 162.421875 237.742188 162.199219 C 238.644531 162.003906 239.554688 161.773438 240.453125 161.574219 C 240.90625 161.476562 241.390625 161.394531 241.828125 161.332031 C 242.230469 161.257812 242.652344 161.238281 243.078125 161.214844 C 243.414062 161.203125 243.804688 161.167969 244.140625 161.15625 C 244.527344 161.121094 244.914062 161.082031 245.300781 161.046875 C 245.765625 161.039062 246.1875 161.015625 246.636719 161.042969 C 246.886719 161.042969 247.101562 161.03125 247.300781 161.054688 C 247.824219 161.109375 248.347656 161.160156 248.898438 161.261719 C 249.382812 161.300781 249.859375 161.378906 250.34375 161.417969 C 250.832031 161.457031 251.308594 161.535156 251.78125 161.613281 C 252.21875 161.675781 252.691406 161.753906 253.128906 161.816406 C 253.605469 161.894531 254.078125 161.96875 254.550781 162.046875 C 254.515625 162.035156 254.476562 162.023438 254.476562 162.023438 C 254.863281 162.109375 255.261719 162.164062 255.652344 162.25 C 255.652344 162.25 255.652344 162.25 255.6875 162.265625 C 255.6875 162.265625 255.726562 162.277344 255.726562 162.277344 C 255.726562 162.277344 255.6875 162.265625 255.6875 162.265625 C 255.761719 162.289062 255.886719 162.289062 255.960938 162.316406 C 256.039062 162.339844 256.074219 162.351562 256.164062 162.339844 C 256.226562 162.277344 256.375 162.203125 256.386719 162.042969 M 214.539062 174.257812 C 215.464844 173.863281 216.417969 173.519531 217.367188 173.175781 C 217.464844 173.125 217.605469 173.085938 217.703125 173.039062 C 218.453125 172.792969 219.191406 172.582031 219.964844 172.386719 C 220.378906 172.277344 220.742188 172.191406 221.140625 172.117188 C 221.503906 172.03125 221.878906 172.035156 222.226562 171.984375 C 223.039062 171.925781 223.828125 171.941406 224.589844 171.90625 C 224.964844 171.910156 225.375 171.921875 225.75 171.925781 C 225.949219 171.949219 226.1875 171.988281 226.386719 172.015625 C 226.234375 172.089844 226.085938 172.164062 225.949219 172.199219 C 225.449219 172.449219 224.921875 172.644531 224.359375 172.828125 C 223.886719 173.003906 223.386719 173.125 222.910156 173.296875 C 222.398438 173.457031 221.886719 173.617188 221.398438 173.828125 C 220.496094 174.148438 219.609375 174.554688 218.710938 174.875 C 218.710938 174.875 218.660156 174.898438 218.660156 174.898438 C 218.148438 175.058594 217.683594 175.195312 217.171875 175.355469 C 216.660156 175.515625 216.136719 175.710938 215.648438 175.921875 C 215.171875 176.09375 214.722656 176.316406 214.246094 176.488281 C 213.808594 176.675781 213.335938 176.847656 212.882812 177.070312 C 212.433594 177.292969 212.019531 177.527344 211.582031 177.714844 C 211.132812 177.9375 210.695312 178.121094 210.246094 178.34375 C 209.832031 178.578125 209.382812 178.800781 208.933594 179.023438 C 208.53125 179.222656 208.167969 179.433594 207.742188 179.578125 C 207.742188 179.578125 207.695312 179.605469 207.695312 179.605469 C 207.90625 179.34375 208.121094 179.082031 208.332031 178.820312 C 208.535156 178.597656 208.722656 178.410156 208.921875 178.1875 C 209.261719 177.804688 209.625 177.46875 209.960938 177.082031 C 210.289062 176.734375 210.613281 176.386719 210.925781 176.078125 C 211.050781 175.953125 211.214844 175.839844 211.351562 175.679688 C 211.464844 175.59375 211.601562 175.554688 211.714844 175.46875 C 212.179688 175.210938 212.628906 174.988281 213.117188 174.777344 C 213.652344 174.667969 214.101562 174.445312 214.539062 174.257812 M 218.253906 165.359375 C 217.863281 165.769531 217.476562 166.179688 217.085938 166.589844 C 216.546875 167.199219 215.972656 167.792969 215.457031 168.453125 C 215.144531 168.761719 214.832031 169.074219 214.507812 169.421875 C 214.105469 169.867188 213.703125 170.316406 213.304688 170.761719 C 212.964844 171.148438 212.625 171.53125 212.273438 171.957031 C 212.050781 172.128906 211.875 172.277344 211.648438 172.453125 C 211.535156 172.539062 211.472656 172.601562 211.363281 172.6875 C 211.375 172.648438 211.386719 172.613281 211.4375 172.585938 C 211.699219 172.054688 211.964844 171.519531 212.203125 170.933594 C 212.40625 170.460938 212.570312 169.972656 212.769531 169.5 C 212.769531 169.5 212.78125 169.464844 212.78125 169.464844 C 212.78125 169.464844 212.78125 169.464844 212.796875 169.425781 C 212.832031 169.3125 212.910156 169.214844 212.933594 169.140625 C 213.347656 168.28125 213.75 167.460938 214.128906 166.589844 C 214.554688 165.570312 215.058594 164.574219 215.511719 163.601562 C 215.949219 162.667969 216.390625 161.734375 216.84375 160.765625 C 217.21875 160.019531 217.648438 159.246094 218.0625 158.515625 C 218.335938 158.066406 218.589844 157.566406 218.828125 157.109375 C 219.117188 156.621094 219.367188 156.125 219.65625 155.640625 C 220.222656 154.707031 220.785156 153.773438 221.351562 152.84375 C 221.914062 151.910156 222.46875 151.015625 223.058594 150.132812 C 223.660156 149.210938 224.210938 148.316406 224.890625 147.421875 C 225.527344 146.511719 226.230469 145.667969 226.832031 144.746094 C 227.144531 144.3125 227.433594 143.828125 227.75 143.394531 C 228.0625 142.957031 228.375 142.523438 228.714844 142.136719 C 229.066406 141.714844 229.414062 141.292969 229.765625 140.871094 C 230.117188 140.449219 230.457031 140.0625 230.808594 139.640625 C 231.09375 139.28125 231.421875 138.933594 231.722656 138.535156 C 231.695312 138.734375 231.621094 138.957031 231.632812 139.167969 C 231.570312 139.480469 231.519531 139.753906 231.492188 140.078125 C 231.441406 140.355469 231.441406 140.601562 231.390625 140.878906 C 231.378906 141.039062 231.339844 141.152344 231.328125 141.3125 C 231.324219 141.4375 231.277344 141.585938 231.273438 141.710938 C 231.238281 141.949219 231.160156 142.171875 231.085938 142.398438 C 230.996094 142.660156 230.933594 142.96875 230.847656 143.230469 C 230.757812 143.492188 230.621094 143.777344 230.53125 144.039062 C 230.40625 144.289062 230.332031 144.511719 230.203125 144.761719 C 230.066406 145.046875 229.890625 145.320312 229.753906 145.609375 C 229.539062 145.992188 229.375 146.355469 229.199219 146.753906 C 228.921875 147.449219 228.683594 148.160156 228.519531 148.894531 C 228.390625 149.394531 228.289062 149.941406 228.164062 150.4375 C 228.023438 150.976562 227.898438 151.472656 227.722656 151.996094 C 227.558594 152.480469 227.417969 153.015625 227.21875 153.488281 C 227.054688 153.976562 226.804688 154.472656 226.601562 154.945312 C 226.5 155.121094 226.449219 155.269531 226.351562 155.445312 C 226.238281 155.65625 226.085938 155.855469 225.972656 156.066406 C 225.699219 156.511719 225.371094 156.984375 225.058594 157.421875 C 224.730469 157.894531 224.40625 158.367188 224.09375 158.800781 C 223.476562 159.632812 222.789062 160.441406 222.074219 161.199219 C 221.148438 162.21875 220.230469 163.199219 219.304688 164.21875 C 219.027344 164.539062 218.640625 164.949219 218.253906 165.359375 M 230.015625 161.632812 C 230.265625 161.257812 230.515625 160.886719 230.753906 160.550781 C 231.007812 160.175781 231.246094 159.839844 231.457031 159.457031 C 231.671875 159.070312 231.921875 158.695312 232.171875 158.324219 C 232.425781 157.949219 232.636719 157.566406 232.851562 157.179688 C 233.277344 156.410156 233.78125 155.664062 234.230469 154.941406 C 234.496094 154.53125 234.707031 154.144531 234.972656 153.734375 C 235.222656 153.363281 235.472656 152.988281 235.710938 152.652344 C 235.964844 152.28125 236.214844 151.90625 236.503906 151.546875 C 236.789062 151.1875 237.054688 150.777344 237.34375 150.414062 C 237.59375 150.042969 237.84375 149.667969 238.121094 149.347656 C 238.410156 148.988281 238.683594 148.664062 239.011719 148.316406 C 239.210938 148.09375 239.410156 147.867188 239.648438 147.65625 C 239.886719 147.445312 240.125 147.234375 240.363281 147.023438 C 240.601562 146.8125 240.824219 146.640625 241.0625 146.429688 C 241.289062 146.253906 241.476562 146.070312 241.738281 145.910156 C 241.890625 145.835938 242.003906 145.746094 242.152344 145.671875 C 242.015625 146.085938 241.863281 146.53125 241.648438 146.917969 C 241.511719 147.203125 241.335938 147.476562 241.210938 147.726562 C 241.035156 148 240.859375 148.273438 240.71875 148.558594 C 240.46875 148.933594 240.269531 149.28125 240.015625 149.652344 C 239.804688 150.039062 239.578125 150.460938 239.363281 150.847656 C 239.136719 151.269531 238.960938 151.667969 238.734375 152.09375 C 238.511719 152.515625 238.296875 152.902344 238.046875 153.273438 C 237.570312 154.070312 236.992188 154.789062 236.425781 155.472656 C 236.140625 155.835938 235.8125 156.183594 235.476562 156.566406 C 235.199219 156.890625 234.921875 157.214844 234.648438 157.535156 C 234.597656 157.5625 234.574219 157.636719 234.523438 157.660156 C 234.511719 157.699219 234.460938 157.722656 234.449219 157.761719 C 234.246094 157.984375 234.046875 158.207031 233.796875 158.457031 C 233.46875 158.804688 233.121094 159.101562 232.769531 159.398438 C 232.417969 159.695312 232.03125 159.980469 231.679688 160.28125 C 231.328125 160.578125 231.015625 160.886719 230.664062 161.183594 C 230.476562 161.371094 230.265625 161.507812 230.039062 161.683594 C 229.964844 161.65625 230.015625 161.632812 230.015625 161.632812 M 234.339844 164.503906 C 234.863281 164.558594 235.386719 164.609375 235.914062 164.660156 C 236.386719 164.738281 236.910156 164.789062 237.386719 164.867188 C 237.898438 164.957031 238.371094 165.035156 238.882812 165.125 C 239.394531 165.210938 239.917969 165.265625 240.40625 165.304688 C 240.917969 165.394531 241.441406 165.445312 241.953125 165.535156 C 242.476562 165.585938 242.988281 165.675781 243.515625 165.730469 C 244 165.769531 244.511719 165.859375 244.988281 165.933594 C 245.421875 166 245.859375 166.0625 246.285156 166.164062 C 246.671875 166.253906 247.058594 166.34375 247.394531 166.457031 C 247.433594 166.46875 247.46875 166.480469 247.546875 166.507812 C 247.917969 166.632812 248.242188 166.785156 248.617188 166.910156 C 249.03125 167.050781 249.402344 167.175781 249.816406 167.3125 C 250.152344 167.425781 250.5 167.503906 250.824219 167.65625 C 250.675781 167.730469 250.574219 167.777344 250.425781 167.851562 C 250.277344 167.925781 250.136719 167.964844 249.988281 168.039062 C 249.339844 168.234375 248.699219 168.394531 248.027344 168.539062 C 247.164062 168.75 246.300781 168.957031 245.4375 169.164062 C 245.078125 169.25 244.765625 169.3125 244.402344 169.398438 C 244.152344 169.398438 243.902344 169.394531 243.675781 169.445312 C 242.664062 169.476562 241.691406 169.523438 240.691406 169.519531 C 239.695312 169.515625 238.730469 169.398438 237.746094 169.234375 C 237.273438 169.15625 236.773438 169.03125 236.285156 168.863281 C 235.824219 168.75 235.414062 168.613281 234.964844 168.460938 C 234.890625 168.433594 234.8125 168.410156 234.703125 168.371094 C 234.253906 168.21875 233.765625 168.054688 233.328125 167.867188 C 232.894531 167.679688 232.445312 167.527344 231.996094 167.375 C 231.769531 167.300781 231.558594 167.1875 231.347656 167.074219 C 231.136719 166.960938 230.871094 166.871094 230.648438 166.796875 C 230.199219 166.644531 229.710938 166.480469 229.289062 166.253906 C 228.964844 166.101562 228.691406 165.929688 228.417969 165.753906 C 228.242188 165.652344 228.078125 165.515625 227.90625 165.414062 C 228.042969 165.375 228.15625 165.289062 228.292969 165.253906 C 228.492188 165.152344 228.71875 165.105469 228.917969 165.007812 C 229.15625 164.917969 229.34375 164.859375 229.566406 164.808594 C 229.792969 164.761719 230.003906 164.75 230.230469 164.699219 C 230.667969 164.640625 231.105469 164.578125 231.542969 164.519531 C 232.003906 164.507812 232.441406 164.449219 232.890625 164.472656 C 233.402344 164.4375 233.851562 164.464844 234.339844 164.503906"/></g></g></g><g fill="#151F28"><g><g><path d="M 5.296875 -1.832031 C 5.726562 -1.972656 5.945312 -2.402344 5.875 -2.972656 C 5.875 -3.117188 5.804688 -3.332031 5.808594 -3.546875 C 5.597656 -4.476562 5.457031 -5.476562 5.25 -6.480469 C 4.828125 -7.980469 4.835938 -9.484375 4.914062 -10.984375 C 4.914062 -11.484375 5.0625 -11.984375 5.207031 -12.554688 C 5.28125 -12.914062 5.566406 -13.054688 5.925781 -12.980469 C 7.421875 -12.617188 8.921875 -12.324219 10.351562 -11.957031 C 13.421875 -11.085938 16.5625 -10.785156 19.78125 -10.699219 C 22.066406 -10.617188 24.214844 -11.035156 26.363281 -11.882812 C 30.945312 -13.789062 34.820312 -16.699219 37.910156 -20.546875 L 39.207031 -22.328125 C 39.421875 -22.683594 39.425781 -23.113281 39.070312 -23.398438 C 38.785156 -23.6875 38.285156 -23.6875 37.996094 -23.332031 C 37.636719 -22.90625 37.207031 -22.480469 36.847656 -21.980469 C 34.257812 -18.5625 31.027344 -15.933594 27.160156 -14.09375 C 24.292969 -12.75 21.429688 -12.046875 18.5 -12.417969 C 14.285156 -12.726562 10.359375 -13.460938 6.644531 -14.550781 C 6.433594 -14.621094 6.148438 -14.695312 5.933594 -14.910156 C 5.789062 -14.984375 5.792969 -15.269531 6.007812 -15.410156 C 6.292969 -15.550781 6.652344 -15.691406 7.082031 -15.835938 C 8.011719 -16.1875 8.941406 -16.398438 9.875 -16.75 C 12.453125 -17.808594 14.746094 -19.300781 16.472656 -21.648438 C 17.121094 -22.503906 17.625 -23.429688 17.773438 -24.503906 C 18.214844 -26.859375 16.578125 -28.511719 14.214844 -28.023438 C 13.070312 -27.742188 12.070312 -27.246094 11.207031 -26.609375 C 9.988281 -25.683594 8.910156 -24.546875 7.976562 -23.335938 C 6.824219 -21.769531 5.957031 -20.128906 5.09375 -18.417969 C 4.949219 -17.988281 4.660156 -17.5625 4.441406 -17.203125 C 4.300781 -16.992188 3.726562 -17.066406 3.585938 -17.351562 C 3.585938 -17.496094 3.515625 -17.566406 3.515625 -17.710938 C 3.308594 -19.285156 3.175781 -20.855469 3.039062 -22.429688 C 2.96875 -23 3.1875 -23.429688 3.617188 -23.855469 C 6.851562 -27.058594 9.65625 -30.617188 12.671875 -34.035156 C 16.265625 -38.164062 19.148438 -42.722656 21.460938 -47.644531 C 22.613281 -49.996094 23.339844 -52.425781 23.566406 -54.996094 C 23.871094 -58.640625 21.667969 -61.4375 18.097656 -62.027344 C 17.027344 -62.246094 16.027344 -62.179688 14.953125 -61.898438 C 12.875 -61.410156 11.226562 -60.34375 9.648438 -58.996094 C 7.0625 -56.71875 5.40625 -53.941406 4.390625 -50.730469 C 2.433594 -45.089844 1.476562 -39.234375 1.089844 -33.304688 C 0.859375 -29.945312 1.273438 -26.582031 1.042969 -23.226562 C 1.039062 -22.941406 1.109375 -22.726562 1.179688 -22.4375 C 1.601562 -20.863281 1.59375 -19.148438 1.800781 -17.574219 C 1.796875 -16.933594 1.582031 -16.71875 0.9375 -16.722656 L -0.632812 -16.730469 C -0.917969 -16.730469 -1.277344 -16.730469 -1.5625 -16.660156 C -1.851562 -16.59375 -2.066406 -16.378906 -2.066406 -16.09375 C -2.140625 -15.878906 -2.070312 -15.59375 -1.855469 -15.449219 C -1.5 -15.230469 -1.140625 -15.085938 -0.785156 -14.941406 C -0.0703125 -14.726562 0.640625 -14.507812 1.355469 -14.359375 C 1.925781 -14.214844 2.28125 -13.855469 2.351562 -13.285156 L 2.976562 -9.5625 C 3.183594 -7.847656 3.390625 -6.058594 3.667969 -4.34375 C 3.804688 -3.699219 3.945312 -3.125 4.160156 -2.625 C 4.371094 -1.980469 4.867188 -1.621094 5.296875 -1.832031 Z M 3.125 -25.789062 C 2.839844 -25.933594 2.769531 -26.21875 2.773438 -26.433594 C 2.703125 -27.21875 2.636719 -28.007812 2.640625 -28.863281 C 2.742188 -35.152344 3.417969 -41.441406 5.089844 -47.582031 C 5.671875 -49.4375 6.25 -51.292969 7.117188 -53.003906 C 8.417969 -55.5 10.214844 -57.5625 12.578125 -59.125 C 13.582031 -59.691406 14.585938 -60.113281 15.730469 -60.394531 C 16.945312 -60.605469 18.089844 -60.457031 19.160156 -60.019531 C 20.871094 -59.296875 21.722656 -57.9375 21.859375 -56.148438 C 21.921875 -54.503906 21.628906 -53.003906 21.191406 -51.433594 C 20.757812 -50.148438 20.25 -48.863281 19.601562 -47.582031 C 17.292969 -43.019531 14.484375 -38.671875 11.105469 -34.757812 C 8.949219 -32.195312 6.789062 -29.632812 4.5625 -27.070312 C 4.132812 -26.570312 3.769531 -26 3.125 -25.789062 Z M 7.589844 -17.761719 C 7.449219 -17.761719 7.160156 -17.621094 7.089844 -17.835938 C 7.019531 -17.980469 6.949219 -18.265625 7.023438 -18.40625 C 8.175781 -20.832031 9.546875 -23.042969 11.628906 -24.746094 C 12.488281 -25.527344 13.421875 -26.097656 14.566406 -26.304688 C 15.566406 -26.585938 16.136719 -26.082031 16.132812 -24.941406 C 16.058594 -24.726562 16.058594 -24.367188 15.914062 -24.011719 C 15.625 -23.441406 15.261719 -22.800781 14.832031 -22.300781 C 12.960938 -20.023438 10.453125 -18.535156 7.589844 -17.761719 Z M 7.589844 -17.761719" transform="translate(102.333 97.439)"/></g></g></g><g fill="#151F28"><g><g><path d="M 10.730469 -16.246094 C 11.800781 -16.3125 12.875 -16.304688 13.945312 -16.445312 C 14.519531 -16.441406 15.089844 -16.652344 15.664062 -16.792969 C 19.816406 -18.203125 23.683594 -20.113281 27.058594 -22.957031 C 27.273438 -23.097656 27.488281 -23.242188 27.703125 -23.453125 C 27.921875 -23.808594 27.992188 -24.167969 27.710938 -24.527344 C 27.496094 -24.882812 27.066406 -24.957031 26.710938 -24.675781 C 26.0625 -24.25 25.488281 -23.824219 24.917969 -23.394531 C 22.191406 -21.265625 19.039062 -19.851562 15.816406 -18.652344 C 12.878906 -17.59375 9.734375 -17.679688 6.664062 -18.410156 C 5.808594 -18.628906 4.953125 -19.0625 4.167969 -19.492188 C 3.242188 -20.070312 2.601562 -20.859375 2.179688 -21.863281 C 1.964844 -22.363281 2.109375 -22.71875 2.753906 -22.859375 C 3.183594 -22.929688 3.613281 -23 4.113281 -23.140625 C 5.332031 -23.347656 6.476562 -23.914062 7.410156 -24.765625 C 8.199219 -25.550781 8.703125 -26.40625 8.851562 -27.546875 C 9 -28.691406 8.648438 -29.550781 7.507812 -30.128906 C 6.226562 -30.847656 4.867188 -30.785156 3.578125 -30.074219 C -0.222656 -27.949219 -1.109375 -22.019531 2.09375 -18.933594 C 2.945312 -18.140625 3.875 -17.636719 4.945312 -17.203125 C 6.796875 -16.480469 8.800781 -16.253906 10.730469 -16.246094 Z M 2.835938 -24.644531 C 2.261719 -24.648438 1.980469 -24.863281 2.050781 -25.222656 C 2.347656 -26.9375 3.28125 -28.074219 4.855469 -28.78125 C 5.144531 -28.925781 5.5 -28.921875 5.785156 -28.921875 C 7.074219 -28.84375 7.570312 -27.984375 6.921875 -26.914062 C 5.984375 -25.273438 4.410156 -24.78125 2.835938 -24.644531 Z M 2.835938 -24.644531" transform="translate(139.426 97.618)"/></g></g></g><g fill="#151F28"><g><g><path d="M 12.371094 13.355469 C 13.304688 12.789062 14.023438 12.074219 14.742188 11.222656 C 16.109375 9.511719 17.117188 7.589844 17.773438 5.519531 C 19.152344 0.878906 19.960938 -3.90625 19.769531 -8.769531 C 19.773438 -9.125 19.847656 -9.554688 19.777344 -9.910156 C 19.636719 -10.839844 20.070312 -11.410156 20.644531 -11.980469 C 22.652344 -13.828125 24.808594 -15.535156 26.957031 -17.097656 C 29.972656 -19.296875 33.195312 -21.070312 36.773438 -22.050781 C 37.0625 -22.121094 37.347656 -22.191406 37.492188 -22.335938 C 37.707031 -22.546875 37.851562 -22.761719 37.851562 -23.046875 C 37.78125 -23.40625 37.570312 -23.691406 37.210938 -23.765625 C 36.925781 -23.765625 36.710938 -23.769531 36.425781 -23.699219 C 35.851562 -23.558594 35.28125 -23.347656 34.707031 -23.132812 C 30.839844 -21.867188 27.472656 -19.738281 24.316406 -17.25 C 23.023438 -16.257812 21.804688 -15.261719 20.582031 -14.269531 C 20.367188 -14.054688 20.082031 -13.769531 19.722656 -13.984375 C 19.511719 -14.128906 19.511719 -14.414062 19.511719 -14.628906 C 19.382812 -16.917969 19.035156 -19.136719 18.6875 -21.351562 C 18.339844 -23.070312 17.773438 -24.789062 17.066406 -26.4375 C 16.644531 -27.222656 16.21875 -28.085938 15.433594 -28.660156 C 14.507812 -29.378906 13.4375 -29.3125 12.644531 -28.457031 C 12.144531 -27.890625 11.78125 -27.246094 11.566406 -26.605469 L 10.042969 -22.46875 C 9.609375 -21.398438 9.175781 -20.328125 8.671875 -19.1875 C 8.308594 -18.472656 7.804688 -17.902344 7.160156 -17.476562 C 6.371094 -16.980469 5.65625 -16.984375 4.945312 -17.558594 C 4.375 -17.992188 3.949219 -18.636719 3.59375 -19.28125 C 2.746094 -20.929688 2.398438 -22.789062 2.40625 -24.433594 C 2.480469 -25.078125 2.480469 -25.578125 2.484375 -26.007812 C 2.488281 -26.507812 2.203125 -26.792969 1.84375 -26.796875 C 1.34375 -26.796875 1.058594 -26.585938 0.984375 -26.15625 C 0.910156 -25.800781 0.839844 -25.515625 0.835938 -25.15625 C 0.679688 -22.582031 1.097656 -20.152344 2.445312 -17.929688 C 2.800781 -17.285156 3.226562 -16.710938 3.796875 -16.277344 C 5.148438 -15.199219 6.578125 -15.050781 8.011719 -15.972656 C 9.085938 -16.683594 9.804688 -17.609375 10.3125 -18.675781 C 10.890625 -20.03125 11.398438 -21.386719 11.902344 -22.746094 L 13.207031 -26.242188 C 13.351562 -26.597656 13.640625 -26.882812 13.855469 -27.167969 C 14 -27.308594 14.285156 -27.378906 14.425781 -27.234375 C 14.710938 -26.949219 14.996094 -26.660156 15.136719 -26.375 C 15.917969 -25.011719 16.410156 -23.582031 16.761719 -22.078125 C 17.460938 -19.144531 17.734375 -16.140625 17.933594 -13.066406 C 18 -12.066406 17.636719 -11.351562 16.921875 -10.640625 C 15.628906 -9.359375 14.40625 -8.007812 13.183594 -6.582031 C 10.738281 -3.59375 8.9375 -0.242188 7.632812 3.394531 C 6.980469 5.109375 6.613281 6.964844 6.746094 8.824219 C 6.742188 9.96875 6.953125 11.042969 7.519531 12.042969 C 8.652344 14.050781 10.4375 14.488281 12.371094 13.355469 Z M 11.808594 11.707031 C 10.519531 12.632812 9.375 12.339844 8.8125 10.835938 C 8.457031 9.832031 8.25 8.761719 8.398438 7.6875 C 8.546875 6.472656 8.765625 5.1875 9.203125 4.046875 C 10.867188 -0.804688 13.605469 -4.9375 17.195312 -8.496094 C 17.269531 -8.566406 17.339844 -8.566406 17.339844 -8.636719 C 17.554688 -8.777344 17.699219 -8.847656 17.910156 -8.707031 C 17.984375 -8.632812 18.054688 -8.492188 18.054688 -8.417969 C 18.121094 -7.847656 18.191406 -7.347656 18.1875 -6.988281 C 17.953125 -2.628906 17.289062 1.441406 15.984375 5.367188 C 15.40625 7.152344 14.539062 8.789062 13.316406 10.214844 C 12.886719 10.785156 12.382812 11.28125 11.808594 11.707031 Z M 11.808594 11.707031" transform="translate(165.083 97.742)"/></g></g></g><g fill="#151F28"><g><g><path d="M 8.949219 -2.601562 L 12.164062 -2.800781 C 14.808594 -2.929688 17.457031 -3.347656 19.742188 -3.265625 L 22.316406 -3.25 L 23.175781 -3.246094 C 23.675781 -3.316406 23.960938 -3.601562 23.964844 -4.03125 C 23.964844 -4.386719 23.683594 -4.601562 23.109375 -4.675781 L 22.753906 -4.679688 C 19.964844 -4.621094 17.179688 -4.777344 14.316406 -4.433594 C 13.03125 -4.296875 11.742188 -4.230469 10.382812 -4.167969 C 10.027344 -4.167969 9.886719 -4.382812 10.03125 -4.667969 C 10.101562 -4.882812 10.175781 -5.027344 10.316406 -5.167969 C 12.910156 -9.160156 15.289062 -13.222656 17.738281 -17.285156 C 19.613281 -20.5625 21.34375 -23.914062 22.792969 -27.410156 C 23.730469 -29.621094 24.527344 -31.902344 24.96875 -34.332031 C 25.335938 -36.1875 25.128906 -38.046875 24.425781 -39.910156 C 23.4375 -42.488281 21.296875 -43.855469 18.507812 -43.585938 C 16.9375 -43.519531 15.503906 -43.027344 14.140625 -42.246094 C 10.488281 -40.191406 8.542969 -36.914062 7.664062 -32.984375 C 7.152344 -30.773438 7.214844 -28.628906 7.632812 -26.480469 C 7.703125 -25.839844 7.839844 -25.265625 8.484375 -24.832031 C 8.695312 -24.691406 8.984375 -24.6875 9.269531 -24.902344 C 9.414062 -25.113281 9.484375 -25.328125 9.414062 -25.542969 C 9.273438 -25.902344 8.988281 -26.261719 8.921875 -26.617188 C 8.296875 -30.695312 8.957031 -34.480469 11.40625 -37.898438 C 12.773438 -39.894531 14.710938 -41.171875 17.070312 -41.875 C 18 -42.15625 19.003906 -42.222656 19.929688 -42.078125 C 21.503906 -41.925781 22.355469 -40.847656 22.992188 -39.558594 C 23.558594 -38.199219 23.835938 -36.695312 23.613281 -35.195312 C 23.394531 -33.695312 23.027344 -32.269531 22.523438 -30.914062 C 21.289062 -27.34375 19.84375 -23.921875 17.96875 -20.714844 C 14.871094 -15.226562 11.699219 -9.808594 8.171875 -4.605469 C 7.953125 -4.320312 7.808594 -3.964844 7.664062 -3.679688 C 7.449219 -3.324219 7.734375 -2.820312 8.089844 -2.675781 C 8.375 -2.605469 8.660156 -2.601562 8.949219 -2.601562 Z M 8.949219 -2.601562" transform="translate(232.836 98.07)"/></g></g></g><g fill="#151F28"><g><g><path d="M 8.597656 -4.105469 C 12.386719 -4.585938 15.898438 -5.925781 19.335938 -7.410156 C 25.136719 -10.101562 29.660156 -14.222656 33.261719 -19.425781 C 33.765625 -20.136719 34.195312 -20.992188 34.628906 -21.777344 C 34.773438 -22.0625 34.917969 -22.417969 34.917969 -22.703125 C 34.992188 -22.988281 34.851562 -23.277344 34.636719 -23.421875 C 34.351562 -23.566406 33.996094 -23.566406 33.707031 -23.355469 C 33.492188 -23.070312 33.277344 -22.710938 33.058594 -22.355469 C 32.554688 -21.574219 32.121094 -20.644531 31.546875 -19.863281 C 26.582031 -12.808594 19.699219 -8.554688 11.46875 -6.304688 C 10.679688 -6.09375 9.894531 -5.957031 9.105469 -5.890625 C 8.535156 -5.820312 7.960938 -5.609375 7.390625 -5.96875 C 7.320312 -6.253906 7.464844 -6.46875 7.679688 -6.683594 C 8.542969 -7.820312 8.765625 -9.179688 8.699219 -10.609375 C 8.640625 -12.824219 8.007812 -14.898438 6.941406 -16.835938 C 6.304688 -18.054688 5.523438 -19.199219 4.746094 -20.347656 C 3.894531 -21.710938 3.113281 -23.144531 2.691406 -24.789062 C 2.414062 -26.007812 2.632812 -27.007812 3.28125 -28.003906 C 4.359375 -29.644531 6.007812 -30.207031 7.9375 -29.984375 C 9.222656 -29.832031 10.433594 -29.328125 11.574219 -28.605469 C 13.214844 -27.671875 13.992188 -26.238281 14.128906 -24.378906 L 14.125 -23.449219 C 14.191406 -23.089844 14.40625 -22.804688 14.761719 -22.800781 C 15.121094 -22.730469 15.40625 -22.871094 15.550781 -23.226562 C 15.695312 -23.511719 15.769531 -23.871094 15.769531 -24.15625 C 15.851562 -26.085938 15.214844 -27.804688 13.722656 -29.097656 C 11.65625 -30.894531 9.230469 -31.761719 6.441406 -31.632812 C 2.726562 -31.4375 -0.0117188 -27.449219 1.117188 -24.011719 C 1.679688 -22.363281 2.386719 -20.859375 3.382812 -19.425781 C 4.234375 -18.207031 4.941406 -16.988281 5.652344 -15.699219 C 6.5 -14.050781 6.921875 -12.261719 7.054688 -10.402344 C 7.1875 -8.183594 5.964844 -6.761719 3.75 -6.558594 C 3.175781 -6.488281 2.535156 -6.636719 1.960938 -6.636719 L 0.605469 -6.644531 C 0.03125 -6.574219 -0.1875 -5.789062 0.167969 -5.359375 C 0.59375 -4.859375 1.167969 -4.640625 1.738281 -4.566406 C 4.023438 -4.199219 6.308594 -3.828125 8.597656 -4.105469 Z M 8.597656 -4.105469" transform="translate(69.482 196.739)"/></g></g></g><g fill="#151F28"><g><g><path d="M 31.496094 -9.570312 C 34.144531 -9.84375 36.363281 -11.117188 38.445312 -12.753906 C 41.601562 -15.238281 43.976562 -18.371094 46.066406 -21.792969 C 46.210938 -22.078125 46.355469 -22.507812 46.5 -22.863281 C 46.5 -23.148438 46.359375 -23.363281 46.144531 -23.507812 C 45.859375 -23.652344 45.644531 -23.652344 45.359375 -23.582031 C 45 -23.371094 44.785156 -23.015625 44.640625 -22.65625 C 43.199219 -20.304688 41.472656 -18.097656 39.605469 -16.035156 C 38.238281 -14.613281 36.660156 -13.402344 34.941406 -12.410156 C 31 -10.144531 24.710938 -10.601562 21.304688 -15.765625 C 20.242188 -17.34375 19.460938 -19.0625 18.972656 -20.921875 C 18.480469 -22.570312 18.128906 -24.285156 17.78125 -25.933594 C 17.640625 -26.503906 17.5 -27.078125 17.144531 -27.578125 C 16.648438 -28.367188 15.933594 -28.585938 15.144531 -28.089844 C 14.714844 -27.804688 14.285156 -27.449219 13.925781 -27.023438 C 13.421875 -26.382812 12.917969 -25.671875 12.488281 -24.957031 C 11.261719 -23.175781 10.109375 -21.394531 8.957031 -19.683594 C 8.382812 -18.828125 7.808594 -18.046875 7.015625 -17.40625 C 5.796875 -16.410156 4.796875 -16.558594 3.875 -17.851562 C 3.164062 -18.855469 2.742188 -19.929688 2.605469 -21.144531 C 2.402344 -23.503906 2.769531 -25.789062 3.28125 -28.003906 C 3.355469 -28.433594 3.5 -28.789062 3.5 -29.144531 C 3.574219 -29.503906 3.433594 -29.863281 3.074219 -29.933594 C 2.71875 -30.078125 2.289062 -29.9375 2.074219 -29.582031 C 1.929688 -29.296875 1.785156 -29.011719 1.710938 -28.65625 C 1.273438 -26.726562 0.90625 -24.796875 0.824219 -22.796875 C 0.820312 -21.796875 0.957031 -20.867188 1.167969 -19.867188 C 1.449219 -18.648438 1.941406 -17.503906 2.722656 -16.5 C 4.21875 -14.777344 6.003906 -14.550781 7.796875 -15.902344 C 8.371094 -16.328125 8.875 -16.898438 9.375 -17.394531 C 9.878906 -18.035156 10.382812 -18.75 10.886719 -19.460938 C 11.894531 -20.957031 12.832031 -22.453125 13.839844 -23.949219 L 14.917969 -25.589844 C 15.136719 -25.875 15.351562 -26.160156 15.707031 -26.15625 C 16.066406 -26.082031 16.136719 -25.726562 16.207031 -25.367188 C 16.203125 -25.082031 16.273438 -24.796875 16.34375 -24.582031 C 16.695312 -23.078125 16.972656 -21.648438 17.394531 -20.144531 C 18.097656 -17.925781 19.089844 -15.703125 20.652344 -13.839844 C 23.421875 -10.394531 27.132812 -9.089844 31.496094 -9.570312 Z M 31.496094 -9.570312" transform="translate(102.144 196.896)"/></g></g></g><g fill="#151F28"><g><g><path d="M 10.488281 -11.101562 C 11.777344 -11.09375 12.992188 -11.015625 14.277344 -11.226562 C 16.28125 -11.644531 18.214844 -12.347656 20.078125 -13.199219 C 24.664062 -15.320312 28.75 -18.089844 32.910156 -20.925781 C 33.699219 -21.421875 34.34375 -22.0625 35.0625 -22.632812 C 35.207031 -22.773438 35.351562 -22.917969 35.421875 -23.132812 C 35.636719 -23.414062 35.640625 -23.703125 35.355469 -23.988281 C 35.140625 -24.347656 34.785156 -24.347656 34.5 -24.207031 C 34.066406 -23.996094 33.710938 -23.710938 33.351562 -23.425781 C 29.90625 -20.65625 26.105469 -18.316406 22.238281 -16.191406 C 20.445312 -15.199219 18.511719 -14.277344 16.503906 -13.574219 C 13.210938 -12.445312 9.855469 -12.675781 6.566406 -13.121094 C 5.566406 -13.195312 4.640625 -13.773438 3.929688 -14.417969 C 2.578125 -15.570312 1.65625 -17.074219 1.808594 -18.933594 C 2.035156 -21.863281 3.40625 -24.144531 6.054688 -25.558594 C 6.914062 -25.984375 7.773438 -26.265625 8.773438 -26.117188 C 9.203125 -26.046875 9.632812 -26.042969 10.132812 -26.039062 C 10.277344 -26.039062 10.492188 -26.253906 10.5625 -26.394531 C 10.777344 -26.609375 10.636719 -26.894531 10.496094 -27.109375 C 10.355469 -27.398438 10.070312 -27.542969 9.710938 -27.617188 C 8.5 -28.050781 7.210938 -27.914062 6.066406 -27.417969 C 4.203125 -26.640625 2.625 -25.433594 1.617188 -23.652344 C -0.0429688 -20.800781 -0.558594 -17.871094 1.285156 -14.863281 C 2.421875 -13.070312 4.132812 -11.917969 6.203125 -11.476562 C 7.628906 -11.113281 9.058594 -11.035156 10.488281 -11.101562 Z M 10.488281 -11.101562" transform="translate(146.384 197.11)"/></g></g></g><g fill="#151F28"><g><g><path d="M 10.488281 -11.101562 C 11.777344 -11.09375 12.992188 -11.015625 14.277344 -11.226562 C 16.28125 -11.644531 18.214844 -12.347656 20.078125 -13.199219 C 24.664062 -15.320312 28.75 -18.089844 32.910156 -20.925781 C 33.699219 -21.421875 34.34375 -22.0625 35.0625 -22.632812 C 35.207031 -22.773438 35.351562 -22.917969 35.421875 -23.132812 C 35.636719 -23.414062 35.640625 -23.703125 35.355469 -23.988281 C 35.140625 -24.347656 34.785156 -24.347656 34.5 -24.207031 C 34.066406 -23.996094 33.710938 -23.710938 33.351562 -23.425781 C 29.90625 -20.65625 26.105469 -18.316406 22.238281 -16.191406 C 20.445312 -15.199219 18.511719 -14.277344 16.503906 -13.574219 C 13.210938 -12.445312 9.855469 -12.675781 6.566406 -13.121094 C 5.566406 -13.195312 4.640625 -13.773438 3.929688 -14.417969 C 2.578125 -15.570312 1.65625 -17.074219 1.808594 -18.933594 C 2.035156 -21.863281 3.40625 -24.144531 6.054688 -25.558594 C 6.914062 -25.984375 7.773438 -26.265625 8.773438 -26.117188 C 9.203125 -26.046875 9.632812 -26.042969 10.132812 -26.039062 C 10.277344 -26.039062 10.492188 -26.253906 10.5625 -26.394531 C 10.777344 -26.609375 10.636719 -26.894531 10.496094 -27.109375 C 10.355469 -27.398438 10.070312 -27.542969 9.710938 -27.617188 C 8.5 -28.050781 7.210938 -27.914062 6.066406 -27.417969 C 4.203125 -26.640625 2.625 -25.433594 1.617188 -23.652344 C -0.0429688 -20.800781 -0.558594 -17.871094 1.285156 -14.863281 C 2.421875 -13.070312 4.132812 -11.917969 6.203125 -11.476562 C 7.628906 -11.113281 9.058594 -11.035156 10.488281 -11.101562 Z M 10.488281 -11.101562" transform="translate(179.688 197.27)"/></g></g></g><g fill="#151F28"><g><g><path d="M 10.730469 -16.246094 C 11.800781 -16.3125 12.875 -16.304688 13.945312 -16.445312 C 14.519531 -16.441406 15.089844 -16.652344 15.664062 -16.792969 C 19.816406 -18.203125 23.683594 -20.113281 27.058594 -22.957031 C 27.273438 -23.097656 27.488281 -23.242188 27.703125 -23.453125 C 27.921875 -23.808594 27.992188 -24.167969 27.710938 -24.527344 C 27.496094 -24.882812 27.066406 -24.957031 26.710938 -24.675781 C 26.0625 -24.25 25.488281 -23.824219 24.917969 -23.394531 C 22.191406 -21.265625 19.039062 -19.851562 15.816406 -18.652344 C 12.878906 -17.59375 9.734375 -17.679688 6.664062 -18.410156 C 5.808594 -18.628906 4.953125 -19.0625 4.167969 -19.492188 C 3.242188 -20.070312 2.601562 -20.859375 2.179688 -21.863281 C 1.964844 -22.363281 2.109375 -22.71875 2.753906 -22.859375 C 3.183594 -22.929688 3.613281 -23 4.113281 -23.140625 C 5.332031 -23.347656 6.476562 -23.914062 7.410156 -24.765625 C 8.199219 -25.550781 8.703125 -26.40625 8.851562 -27.546875 C 9 -28.691406 8.648438 -29.550781 7.507812 -30.128906 C 6.226562 -30.847656 4.867188 -30.785156 3.578125 -30.074219 C -0.222656 -27.949219 -1.109375 -22.019531 2.09375 -18.933594 C 2.945312 -18.140625 3.875 -17.636719 4.945312 -17.203125 C 6.796875 -16.480469 8.800781 -16.253906 10.730469 -16.246094 Z M 2.835938 -24.644531 C 2.261719 -24.648438 1.980469 -24.863281 2.050781 -25.222656 C 2.347656 -26.9375 3.28125 -28.074219 4.855469 -28.78125 C 5.144531 -28.925781 5.5 -28.921875 5.785156 -28.921875 C 7.074219 -28.84375 7.570312 -27.984375 6.921875 -26.914062 C 5.984375 -25.273438 4.410156 -24.78125 2.835938 -24.644531 Z M 2.835938 -24.644531" transform="translate(212.993 197.432)"/></g></g></g><g fill="#151F28"><g><g><path d="M 8.597656 -4.105469 C 12.386719 -4.585938 15.898438 -5.925781 19.335938 -7.410156 C 25.136719 -10.101562 29.660156 -14.222656 33.261719 -19.425781 C 33.765625 -20.136719 34.195312 -20.992188 34.628906 -21.777344 C 34.773438 -22.0625 34.917969 -22.417969 34.917969 -22.703125 C 34.992188 -22.988281 34.851562 -23.277344 34.636719 -23.421875 C 34.351562 -23.566406 33.996094 -23.566406 33.707031 -23.355469 C 33.492188 -23.070312 33.277344 -22.710938 33.058594 -22.355469 C 32.554688 -21.574219 32.121094 -20.644531 31.546875 -19.863281 C 26.582031 -12.808594 19.699219 -8.554688 11.46875 -6.304688 C 10.679688 -6.09375 9.894531 -5.957031 9.105469 -5.890625 C 8.535156 -5.820312 7.960938 -5.609375 7.390625 -5.96875 C 7.320312 -6.253906 7.464844 -6.46875 7.679688 -6.683594 C 8.542969 -7.820312 8.765625 -9.179688 8.699219 -10.609375 C 8.640625 -12.824219 8.007812 -14.898438 6.941406 -16.835938 C 6.304688 -18.054688 5.523438 -19.199219 4.746094 -20.347656 C 3.894531 -21.710938 3.113281 -23.144531 2.691406 -24.789062 C 2.414062 -26.007812 2.632812 -27.007812 3.28125 -28.003906 C 4.359375 -29.644531 6.007812 -30.207031 7.9375 -29.984375 C 9.222656 -29.832031 10.433594 -29.328125 11.574219 -28.605469 C 13.214844 -27.671875 13.992188 -26.238281 14.128906 -24.378906 L 14.125 -23.449219 C 14.191406 -23.089844 14.40625 -22.804688 14.761719 -22.800781 C 15.121094 -22.730469 15.40625 -22.871094 15.550781 -23.226562 C 15.695312 -23.511719 15.769531 -23.871094 15.769531 -24.15625 C 15.851562 -26.085938 15.214844 -27.804688 13.722656 -29.097656 C 11.65625 -30.894531 9.230469 -31.761719 6.441406 -31.632812 C 2.726562 -31.4375 -0.0117188 -27.449219 1.117188 -24.011719 C 1.679688 -22.363281 2.386719 -20.859375 3.382812 -19.425781 C 4.234375 -18.207031 4.941406 -16.988281 5.652344 -15.699219 C 6.5 -14.050781 6.921875 -12.261719 7.054688 -10.402344 C 7.1875 -8.183594 5.964844 -6.761719 3.75 -6.558594 C 3.175781 -6.488281 2.535156 -6.636719 1.960938 -6.636719 L 0.605469 -6.644531 C 0.03125 -6.574219 -0.1875 -5.789062 0.167969 -5.359375 C 0.59375 -4.859375 1.167969 -4.640625 1.738281 -4.566406 C 4.023438 -4.199219 6.308594 -3.828125 8.597656 -4.105469 Z M 8.597656 -4.105469" transform="translate(238.65 197.556)"/></g></g></g><g fill="#151F28"><g><g><path d="M 8.597656 -4.105469 C 12.386719 -4.585938 15.898438 -5.925781 19.335938 -7.410156 C 25.136719 -10.101562 29.660156 -14.222656 33.261719 -19.425781 C 33.765625 -20.136719 34.195312 -20.992188 34.628906 -21.777344 C 34.773438 -22.0625 34.917969 -22.417969 34.917969 -22.703125 C 34.992188 -22.988281 34.851562 -23.277344 34.636719 -23.421875 C 34.351562 -23.566406 33.996094 -23.566406 33.707031 -23.355469 C 33.492188 -23.070312 33.277344 -22.710938 33.058594 -22.355469 C 32.554688 -21.574219 32.121094 -20.644531 31.546875 -19.863281 C 26.582031 -12.808594 19.699219 -8.554688 11.46875 -6.304688 C 10.679688 -6.09375 9.894531 -5.957031 9.105469 -5.890625 C 8.535156 -5.820312 7.960938 -5.609375 7.390625 -5.96875 C 7.320312 -6.253906 7.464844 -6.46875 7.679688 -6.683594 C 8.542969 -7.820312 8.765625 -9.179688 8.699219 -10.609375 C 8.640625 -12.824219 8.007812 -14.898438 6.941406 -16.835938 C 6.304688 -18.054688 5.523438 -19.199219 4.746094 -20.347656 C 3.894531 -21.710938 3.113281 -23.144531 2.691406 -24.789062 C 2.414062 -26.007812 2.632812 -27.007812 3.28125 -28.003906 C 4.359375 -29.644531 6.007812 -30.207031 7.9375 -29.984375 C 9.222656 -29.832031 10.433594 -29.328125 11.574219 -28.605469 C 13.214844 -27.671875 13.992188 -26.238281 14.128906 -24.378906 L 14.125 -23.449219 C 14.191406 -23.089844 14.40625 -22.804688 14.761719 -22.800781 C 15.121094 -22.730469 15.40625 -22.871094 15.550781 -23.226562 C 15.695312 -23.511719 15.769531 -23.871094 15.769531 -24.15625 C 15.851562 -26.085938 15.214844 -27.804688 13.722656 -29.097656 C 11.65625 -30.894531 9.230469 -31.761719 6.441406 -31.632812 C 2.726562 -31.4375 -0.0117188 -27.449219 1.117188 -24.011719 C 1.679688 -22.363281 2.386719 -20.859375 3.382812 -19.425781 C 4.234375 -18.207031 4.941406 -16.988281 5.652344 -15.699219 C 6.5 -14.050781 6.921875 -12.261719 7.054688 -10.402344 C 7.1875 -8.183594 5.964844 -6.761719 3.75 -6.558594 C 3.175781 -6.488281 2.535156 -6.636719 1.960938 -6.636719 L 0.605469 -6.644531 C 0.03125 -6.574219 -0.1875 -5.789062 0.167969 -5.359375 C 0.59375 -4.859375 1.167969 -4.640625 1.738281 -4.566406 C 4.023438 -4.199219 6.308594 -3.828125 8.597656 -4.105469 Z M 8.597656 -4.105469" transform="translate(271.312 197.713)"/></g></g></g><g fill="#151F28"><g><g><path d="M 2.109375 -0.378906 L 2.109375 -2.292969 L 0.605469 -5.140625 L 0.597656 -5.140625 C 0.542969 -5.253906 0.492188 -5.351562 0.457031 -5.421875 C 0.414062 -5.5 0.378906 -5.554688 0.351562 -5.589844 C 0.316406 -5.667969 0.28125 -5.710938 0.253906 -5.710938 L 0.246094 -5.710938 L 0.246094 -5.800781 L 0.929688 -5.800781 L 0.929688 -5.710938 L 0.921875 -5.710938 C 0.914062 -5.710938 0.921875 -5.675781 0.941406 -5.617188 C 0.949219 -5.597656 0.964844 -5.554688 1 -5.484375 C 1.019531 -5.449219 1.035156 -5.421875 1.054688 -5.386719 L 1.117188 -5.265625 L 2.511719 -2.574219 L 3.839844 -4.964844 C 3.894531 -5.0625 3.953125 -5.160156 4.007812 -5.253906 C 4.058594 -5.351562 4.105469 -5.449219 4.15625 -5.554688 C 4.210938 -5.660156 4.21875 -5.710938 4.199219 -5.710938 L 4.191406 -5.710938 L 4.191406 -5.800781 L 4.464844 -5.800781 L 4.464844 -5.710938 L 4.457031 -5.710938 C 4.429688 -5.710938 4.394531 -5.667969 4.339844 -5.597656 C 4.304688 -5.554688 4.269531 -5.5 4.234375 -5.429688 C 4.199219 -5.359375 4.148438 -5.265625 4.078125 -5.140625 L 2.59375 -2.496094 L 2.59375 -0.386719 C 2.59375 -0.351562 2.59375 -0.316406 2.59375 -0.289062 C 2.59375 -0.261719 2.601562 -0.238281 2.601562 -0.210938 C 2.617188 -0.121094 2.636719 -0.0859375 2.664062 -0.0859375 L 2.671875 -0.0859375 L 2.671875 0 L 2.03125 0 L 2.03125 -0.0859375 L 2.039062 -0.0859375 C 2.074219 -0.0859375 2.089844 -0.121094 2.089844 -0.203125 C 2.101562 -0.226562 2.109375 -0.253906 2.109375 -0.28125 Z M 2.109375 -0.378906" transform="translate(183.651 130.02)"/></g></g></g><g fill="#151F28"><g><g><path d="M 4.851562 -0.132812 C 4.464844 -0.0078125 3.972656 0.0429688 3.382812 0.0429688 C 3.066406 0.0429688 2.792969 0.0351562 2.558594 0 C 2.3125 -0.0273438 2.101562 -0.0703125 1.925781 -0.121094 C 1.738281 -0.183594 1.582031 -0.253906 1.449219 -0.324219 C 1.316406 -0.394531 1.1875 -0.5 1.0625 -0.660156 C 0.941406 -0.808594 0.84375 -0.976562 0.773438 -1.160156 C 0.703125 -1.335938 0.648438 -1.527344 0.613281 -1.722656 C 0.578125 -1.914062 0.5625 -2.117188 0.554688 -2.320312 C 0.542969 -2.511719 0.542969 -2.707031 0.542969 -2.898438 C 0.542969 -3.179688 0.554688 -3.460938 0.578125 -3.753906 C 0.597656 -4.042969 0.660156 -4.316406 0.746094 -4.570312 C 0.835938 -4.816406 0.976562 -5.042969 1.160156 -5.238281 C 1.34375 -5.429688 1.597656 -5.570312 1.925781 -5.667969 C 2.136719 -5.746094 2.382812 -5.800781 2.644531 -5.816406 C 2.910156 -5.835938 3.15625 -5.84375 3.382812 -5.84375 C 3.601562 -5.84375 3.847656 -5.835938 4.121094 -5.816406 C 4.386719 -5.800781 4.632812 -5.757812 4.84375 -5.675781 C 5.230469 -5.554688 5.519531 -5.378906 5.710938 -5.140625 C 5.835938 -5.007812 5.921875 -4.851562 5.992188 -4.667969 C 6.0625 -4.472656 6.117188 -4.28125 6.152344 -4.078125 C 6.1875 -3.867188 6.203125 -3.664062 6.214844 -3.460938 C 6.222656 -3.25 6.230469 -3.066406 6.230469 -2.898438 C 6.230469 -2.390625 6.195312 -1.949219 6.125 -1.582031 C 6.046875 -1.1875 5.90625 -0.878906 5.703125 -0.660156 C 5.5 -0.4375 5.21875 -0.261719 4.851562 -0.132812 Z M 3.382812 -5.722656 C 2.890625 -5.722656 2.496094 -5.660156 2.207031 -5.554688 C 1.976562 -5.476562 1.800781 -5.371094 1.667969 -5.238281 C 1.527344 -5.097656 1.421875 -4.949219 1.34375 -4.773438 C 1.265625 -4.597656 1.210938 -4.402344 1.175781 -4.210938 C 1.140625 -4.007812 1.125 -3.804688 1.105469 -3.59375 C 1.089844 -3.382812 1.082031 -3.144531 1.082031 -2.898438 C 1.082031 -2.425781 1.105469 -2.003906 1.160156 -1.632812 C 1.175781 -1.546875 1.195312 -1.457031 1.210938 -1.378906 C 1.230469 -1.300781 1.246094 -1.222656 1.28125 -1.152344 C 1.34375 -1.011719 1.414062 -0.878906 1.492188 -0.753906 C 1.660156 -0.527344 1.898438 -0.359375 2.195312 -0.246094 C 2.382812 -0.175781 2.574219 -0.132812 2.777344 -0.113281 C 2.980469 -0.0859375 3.179688 -0.078125 3.382812 -0.078125 C 3.542969 -0.078125 3.71875 -0.0859375 3.894531 -0.105469 C 4.070312 -0.121094 4.246094 -0.148438 4.421875 -0.203125 C 4.597656 -0.246094 4.753906 -0.316406 4.902344 -0.402344 C 5.042969 -0.492188 5.167969 -0.613281 5.273438 -0.753906 C 5.371094 -0.878906 5.449219 -1.035156 5.511719 -1.210938 C 5.5625 -1.386719 5.605469 -1.582031 5.632812 -1.785156 C 5.660156 -1.976562 5.675781 -2.179688 5.6875 -2.371094 C 5.6875 -2.566406 5.695312 -2.742188 5.695312 -2.898438 L 5.695312 -3.25 C 5.695312 -3.367188 5.6875 -3.480469 5.675781 -3.585938 C 5.667969 -3.691406 5.660156 -3.789062 5.652344 -3.882812 C 5.640625 -3.980469 5.632812 -4.078125 5.617188 -4.164062 C 5.5625 -4.535156 5.449219 -4.832031 5.28125 -5.042969 C 5.105469 -5.289062 4.867188 -5.457031 4.578125 -5.554688 C 4.296875 -5.660156 3.894531 -5.722656 3.382812 -5.722656 Z M 3.382812 -5.722656" transform="translate(192.695 130.02)"/></g></g></g><g fill="#151F28"><g><g><path d="M 2.109375 -0.378906 L 2.109375 -2.292969 L 0.605469 -5.140625 L 0.597656 -5.140625 C 0.542969 -5.253906 0.492188 -5.351562 0.457031 -5.421875 C 0.414062 -5.5 0.378906 -5.554688 0.351562 -5.589844 C 0.316406 -5.667969 0.28125 -5.710938 0.253906 -5.710938 L 0.246094 -5.710938 L 0.246094 -5.800781 L 0.929688 -5.800781 L 0.929688 -5.710938 L 0.921875 -5.710938 C 0.914062 -5.710938 0.921875 -5.675781 0.941406 -5.617188 C 0.949219 -5.597656 0.964844 -5.554688 1 -5.484375 C 1.019531 -5.449219 1.035156 -5.421875 1.054688 -5.386719 L 1.117188 -5.265625 L 2.511719 -2.574219 L 3.839844 -4.964844 C 3.894531 -5.0625 3.953125 -5.160156 4.007812 -5.253906 C 4.058594 -5.351562 4.105469 -5.449219 4.15625 -5.554688 C 4.210938 -5.660156 4.21875 -5.710938 4.199219 -5.710938 L 4.191406 -5.710938 L 4.191406 -5.800781 L 4.464844 -5.800781 L 4.464844 -5.710938 L 4.457031 -5.710938 C 4.429688 -5.710938 4.394531 -5.667969 4.339844 -5.597656 C 4.304688 -5.554688 4.269531 -5.5 4.234375 -5.429688 C 4.199219 -5.359375 4.148438 -5.265625 4.078125 -5.140625 L 2.59375 -2.496094 L 2.59375 -0.386719 C 2.59375 -0.351562 2.59375 -0.316406 2.59375 -0.289062 C 2.59375 -0.261719 2.601562 -0.238281 2.601562 -0.210938 C 2.617188 -0.121094 2.636719 -0.0859375 2.664062 -0.0859375 L 2.671875 -0.0859375 L 2.671875 0 L 2.03125 0 L 2.03125 -0.0859375 L 2.039062 -0.0859375 C 2.074219 -0.0859375 2.089844 -0.121094 2.089844 -0.203125 C 2.101562 -0.226562 2.109375 -0.253906 2.109375 -0.28125 Z M 2.109375 -0.378906" transform="translate(203.866 130.02)"/></g></g></g><g fill="#151F28"><g><g><path d="M 0.507812 -0.203125 C 0.519531 -0.226562 0.527344 -0.253906 0.527344 -0.28125 L 0.527344 -5.421875 C 0.535156 -5.5 0.535156 -5.554688 0.519531 -5.589844 C 0.519531 -5.667969 0.492188 -5.710938 0.457031 -5.710938 L 0.449219 -5.710938 L 0.449219 -5.800781 L 2.617188 -5.800781 C 2.652344 -5.800781 2.6875 -5.792969 2.722656 -5.792969 C 2.792969 -5.78125 2.855469 -5.773438 2.925781 -5.765625 C 2.988281 -5.757812 3.050781 -5.746094 3.109375 -5.730469 C 3.191406 -5.710938 3.285156 -5.6875 3.402344 -5.652344 C 3.507812 -5.605469 3.59375 -5.554688 3.65625 -5.492188 C 3.789062 -5.386719 3.882812 -5.238281 3.9375 -5.027344 C 3.988281 -4.851562 4.023438 -4.613281 4.023438 -4.304688 C 4.023438 -4.023438 3.988281 -3.796875 3.9375 -3.613281 C 3.875 -3.425781 3.777344 -3.277344 3.65625 -3.164062 C 3.523438 -3.039062 3.355469 -2.953125 3.164062 -2.898438 C 2.96875 -2.847656 2.734375 -2.8125 2.453125 -2.792969 L 4.113281 -0.835938 C 4.304688 -0.605469 4.445312 -0.4375 4.535156 -0.332031 C 4.621094 -0.226562 4.683594 -0.15625 4.71875 -0.121094 C 4.761719 -0.0859375 4.789062 -0.078125 4.808594 -0.078125 C 4.816406 -0.0859375 4.851562 -0.0976562 4.914062 -0.0976562 L 4.957031 -0.0976562 L 4.957031 0 L 4.480469 0 C 4.457031 0 4.4375 0.0078125 4.421875 0.015625 C 4.351562 0.015625 4.28125 0.0078125 4.21875 -0.0273438 C 4.191406 -0.0507812 4.15625 -0.0859375 4.113281 -0.132812 C 4.085938 -0.15625 4.058594 -0.183594 4.042969 -0.210938 C 4.015625 -0.238281 3.988281 -0.261719 3.964844 -0.296875 C 3.875 -0.402344 3.796875 -0.519531 3.707031 -0.625 C 3.621094 -0.730469 3.53125 -0.824219 3.445312 -0.929688 L 1.878906 -2.785156 L 1.011719 -2.785156 L 1.011719 -0.660156 C 1.011719 -0.605469 1.019531 -0.554688 1.019531 -0.507812 L 1.019531 -0.386719 C 1.019531 -0.351562 1.027344 -0.316406 1.027344 -0.289062 L 1.027344 -0.210938 C 1.046875 -0.121094 1.0625 -0.0859375 1.082031 -0.0859375 L 1.089844 -0.0859375 L 1.089844 0 L 0.449219 0 L 0.449219 -0.0859375 L 0.457031 -0.0859375 C 0.492188 -0.0859375 0.507812 -0.121094 0.507812 -0.203125 Z M 2.265625 -5.675781 L 1.011719 -5.675781 L 1.011719 -2.898438 L 2.011719 -2.898438 C 2.160156 -2.898438 2.292969 -2.898438 2.417969 -2.917969 C 2.539062 -2.925781 2.644531 -2.945312 2.734375 -2.960938 C 2.925781 -3.015625 3.085938 -3.09375 3.199219 -3.191406 C 3.3125 -3.296875 3.390625 -3.445312 3.445312 -3.628906 C 3.460938 -3.671875 3.472656 -3.726562 3.480469 -3.777344 L 3.496094 -3.9375 C 3.507812 -3.988281 3.515625 -4.050781 3.515625 -4.113281 L 3.515625 -4.304688 C 3.515625 -4.597656 3.488281 -4.816406 3.453125 -4.964844 C 3.417969 -5.160156 3.347656 -5.300781 3.25 -5.386719 C 3.164062 -5.484375 3.039062 -5.554688 2.863281 -5.605469 C 2.820312 -5.625 2.777344 -5.632812 2.742188 -5.640625 C 2.699219 -5.640625 2.652344 -5.652344 2.601562 -5.660156 C 2.546875 -5.667969 2.496094 -5.675781 2.441406 -5.675781 Z M 2.265625 -5.675781" transform="translate(212.91 130.02)"/></g></g></g><g fill="#151F28"><g><g><path d="M 0.527344 -0.378906 L 0.527344 -5.421875 C 0.535156 -5.5 0.535156 -5.554688 0.519531 -5.589844 C 0.519531 -5.667969 0.492188 -5.710938 0.457031 -5.710938 L 0.449219 -5.710938 L 0.449219 -5.800781 L 2.617188 -5.800781 C 2.652344 -5.800781 2.6875 -5.792969 2.722656 -5.792969 C 2.863281 -5.773438 2.996094 -5.757812 3.101562 -5.738281 C 3.285156 -5.703125 3.453125 -5.640625 3.59375 -5.546875 C 3.734375 -5.449219 3.839844 -5.308594 3.910156 -5.125 C 3.964844 -4.964844 4 -4.753906 4 -4.492188 C 4 -4.28125 3.980469 -4.09375 3.945312 -3.9375 C 3.910156 -3.777344 3.847656 -3.648438 3.761719 -3.542969 C 3.671875 -3.425781 3.558594 -3.339844 3.417969 -3.269531 C 3.277344 -3.199219 3.101562 -3.144531 2.890625 -3.109375 C 2.953125 -3.101562 3.03125 -3.09375 3.128906 -3.085938 C 3.214844 -3.066406 3.3125 -3.050781 3.410156 -3.03125 C 3.507812 -3.003906 3.601562 -2.980469 3.691406 -2.953125 C 3.777344 -2.917969 3.859375 -2.882812 3.910156 -2.847656 C 3.988281 -2.792969 4.058594 -2.742188 4.121094 -2.679688 C 4.191406 -2.609375 4.253906 -2.53125 4.296875 -2.441406 C 4.339844 -2.355469 4.375 -2.265625 4.402344 -2.171875 C 4.421875 -2.074219 4.4375 -1.976562 4.445312 -1.878906 C 4.457031 -1.773438 4.464844 -1.679688 4.464844 -1.582031 C 4.464844 -1.230469 4.421875 -0.957031 4.332031 -0.746094 C 4.246094 -0.535156 4.113281 -0.378906 3.945312 -0.273438 C 3.777344 -0.15625 3.578125 -0.0859375 3.332031 -0.0507812 C 3.085938 -0.015625 2.804688 0 2.488281 0 L 0.449219 0 L 0.449219 -0.0859375 L 0.457031 -0.0859375 C 0.492188 -0.0859375 0.507812 -0.121094 0.507812 -0.203125 C 0.519531 -0.226562 0.527344 -0.253906 0.527344 -0.28125 Z M 1.898438 -3.050781 L 1.011719 -3.050781 L 1.011719 -0.121094 L 2.433594 -0.121094 C 2.511719 -0.121094 2.582031 -0.121094 2.652344 -0.121094 C 2.714844 -0.121094 2.777344 -0.132812 2.839844 -0.140625 C 2.945312 -0.15625 3.058594 -0.175781 3.164062 -0.191406 C 3.339844 -0.238281 3.472656 -0.308594 3.578125 -0.394531 C 3.683594 -0.484375 3.761719 -0.578125 3.8125 -0.703125 C 3.867188 -0.824219 3.910156 -0.957031 3.929688 -1.105469 C 3.945312 -1.257812 3.953125 -1.414062 3.953125 -1.582031 C 3.953125 -1.703125 3.945312 -1.820312 3.9375 -1.933594 C 3.929688 -2.046875 3.902344 -2.160156 3.859375 -2.285156 C 3.796875 -2.476562 3.683594 -2.628906 3.523438 -2.742188 C 3.367188 -2.863281 3.15625 -2.945312 2.890625 -2.980469 C 2.820312 -2.996094 2.75 -3.003906 2.679688 -3.015625 C 2.609375 -3.015625 2.53125 -3.023438 2.453125 -3.03125 C 2.363281 -3.039062 2.277344 -3.050781 2.1875 -3.050781 Z M 1.011719 -5.675781 L 1.011719 -3.128906 L 1.351562 -3.128906 L 2.046875 -3.144531 L 2.382812 -3.144531 C 2.8125 -3.179688 3.109375 -3.296875 3.269531 -3.507812 C 3.425781 -3.71875 3.515625 -4.042969 3.515625 -4.492188 C 3.515625 -4.738281 3.488281 -4.929688 3.453125 -5.0625 C 3.417969 -5.230469 3.347656 -5.351562 3.25 -5.421875 C 3.164062 -5.511719 3.039062 -5.582031 2.863281 -5.617188 C 2.734375 -5.652344 2.53125 -5.675781 2.265625 -5.675781 Z M 1.011719 -5.675781" transform="translate(229.065 130.02)"/></g></g></g><g fill="#151F28"><g><g><path d="M 0.921875 -5.429688 C 0.921875 -5.394531 0.914062 -5.351562 0.914062 -5.308594 C 0.914062 -5.253906 0.914062 -5.203125 0.914062 -5.140625 L 0.914062 -0.121094 L 2.425781 -0.121094 C 2.722656 -0.121094 2.953125 -0.132812 3.09375 -0.148438 C 3.234375 -0.167969 3.347656 -0.203125 3.417969 -0.253906 L 3.460938 -0.273438 L 3.550781 -0.273438 C 3.566406 -0.273438 3.578125 -0.261719 3.578125 -0.261719 C 3.578125 -0.238281 3.566406 -0.203125 3.558594 -0.15625 C 3.550781 -0.113281 3.542969 -0.078125 3.53125 -0.0625 L 3.53125 -0.0507812 C 3.53125 -0.0507812 3.53125 -0.0429688 3.53125 -0.0351562 C 3.53125 -0.0273438 3.523438 -0.015625 3.523438 -0.015625 C 3.523438 -0.015625 3.523438 -0.0078125 3.523438 0 L 0.351562 0 L 0.351562 -0.0859375 L 0.359375 -0.0859375 C 0.394531 -0.0859375 0.414062 -0.121094 0.414062 -0.203125 C 0.421875 -0.226562 0.429688 -0.253906 0.429688 -0.28125 L 0.429688 -5.421875 C 0.4375 -5.5 0.4375 -5.554688 0.421875 -5.589844 C 0.421875 -5.667969 0.394531 -5.710938 0.359375 -5.710938 L 0.351562 -5.710938 L 0.351562 -5.800781 L 0.992188 -5.800781 L 0.992188 -5.710938 L 0.984375 -5.710938 C 0.964844 -5.710938 0.949219 -5.667969 0.929688 -5.597656 L 0.929688 -5.527344 C 0.929688 -5.5 0.921875 -5.464844 0.921875 -5.429688 Z M 0.921875 -5.429688" transform="translate(238.206 130.02)"/></g></g></g><g fill="#151F28"><g><g><path d="M 4.851562 -0.132812 C 4.464844 -0.0078125 3.972656 0.0429688 3.382812 0.0429688 C 3.066406 0.0429688 2.792969 0.0351562 2.558594 0 C 2.3125 -0.0273438 2.101562 -0.0703125 1.925781 -0.121094 C 1.738281 -0.183594 1.582031 -0.253906 1.449219 -0.324219 C 1.316406 -0.394531 1.1875 -0.5 1.0625 -0.660156 C 0.941406 -0.808594 0.84375 -0.976562 0.773438 -1.160156 C 0.703125 -1.335938 0.648438 -1.527344 0.613281 -1.722656 C 0.578125 -1.914062 0.5625 -2.117188 0.554688 -2.320312 C 0.542969 -2.511719 0.542969 -2.707031 0.542969 -2.898438 C 0.542969 -3.179688 0.554688 -3.460938 0.578125 -3.753906 C 0.597656 -4.042969 0.660156 -4.316406 0.746094 -4.570312 C 0.835938 -4.816406 0.976562 -5.042969 1.160156 -5.238281 C 1.34375 -5.429688 1.597656 -5.570312 1.925781 -5.667969 C 2.136719 -5.746094 2.382812 -5.800781 2.644531 -5.816406 C 2.910156 -5.835938 3.15625 -5.84375 3.382812 -5.84375 C 3.601562 -5.84375 3.847656 -5.835938 4.121094 -5.816406 C 4.386719 -5.800781 4.632812 -5.757812 4.84375 -5.675781 C 5.230469 -5.554688 5.519531 -5.378906 5.710938 -5.140625 C 5.835938 -5.007812 5.921875 -4.851562 5.992188 -4.667969 C 6.0625 -4.472656 6.117188 -4.28125 6.152344 -4.078125 C 6.1875 -3.867188 6.203125 -3.664062 6.214844 -3.460938 C 6.222656 -3.25 6.230469 -3.066406 6.230469 -2.898438 C 6.230469 -2.390625 6.195312 -1.949219 6.125 -1.582031 C 6.046875 -1.1875 5.90625 -0.878906 5.703125 -0.660156 C 5.5 -0.4375 5.21875 -0.261719 4.851562 -0.132812 Z M 3.382812 -5.722656 C 2.890625 -5.722656 2.496094 -5.660156 2.207031 -5.554688 C 1.976562 -5.476562 1.800781 -5.371094 1.667969 -5.238281 C 1.527344 -5.097656 1.421875 -4.949219 1.34375 -4.773438 C 1.265625 -4.597656 1.210938 -4.402344 1.175781 -4.210938 C 1.140625 -4.007812 1.125 -3.804688 1.105469 -3.59375 C 1.089844 -3.382812 1.082031 -3.144531 1.082031 -2.898438 C 1.082031 -2.425781 1.105469 -2.003906 1.160156 -1.632812 C 1.175781 -1.546875 1.195312 -1.457031 1.210938 -1.378906 C 1.230469 -1.300781 1.246094 -1.222656 1.28125 -1.152344 C 1.34375 -1.011719 1.414062 -0.878906 1.492188 -0.753906 C 1.660156 -0.527344 1.898438 -0.359375 2.195312 -0.246094 C 2.382812 -0.175781 2.574219 -0.132812 2.777344 -0.113281 C 2.980469 -0.0859375 3.179688 -0.078125 3.382812 -0.078125 C 3.542969 -0.078125 3.71875 -0.0859375 3.894531 -0.105469 C 4.070312 -0.121094 4.246094 -0.148438 4.421875 -0.203125 C 4.597656 -0.246094 4.753906 -0.316406 4.902344 -0.402344 C 5.042969 -0.492188 5.167969 -0.613281 5.273438 -0.753906 C 5.371094 -0.878906 5.449219 -1.035156 5.511719 -1.210938 C 5.5625 -1.386719 5.605469 -1.582031 5.632812 -1.785156 C 5.660156 -1.976562 5.675781 -2.179688 5.6875 -2.371094 C 5.6875 -2.566406 5.695312 -2.742188 5.695312 -2.898438 L 5.695312 -3.25 C 5.695312 -3.367188 5.6875 -3.480469 5.675781 -3.585938 C 5.667969 -3.691406 5.660156 -3.789062 5.652344 -3.882812 C 5.640625 -3.980469 5.632812 -4.078125 5.617188 -4.164062 C 5.5625 -4.535156 5.449219 -4.832031 5.28125 -5.042969 C 5.105469 -5.289062 4.867188 -5.457031 4.578125 -5.554688 C 4.296875 -5.660156 3.894531 -5.722656 3.382812 -5.722656 Z M 3.382812 -5.722656" transform="translate(246.635 130.02)"/></g></g></g><g fill="#151F28"><g><g><path d="M 3.390625 -0.078125 C 3.558594 -0.078125 3.726562 -0.078125 3.894531 -0.0976562 C 4.058594 -0.105469 4.226562 -0.121094 4.402344 -0.148438 C 4.683594 -0.203125 4.957031 -0.289062 5.21875 -0.414062 L 5.21875 -2.347656 C 5.230469 -2.425781 5.230469 -2.476562 5.210938 -2.511719 C 5.210938 -2.59375 5.183594 -2.636719 5.148438 -2.636719 L 5.140625 -2.636719 L 5.140625 -2.722656 L 5.730469 -2.722656 C 5.730469 -2.722656 5.730469 -2.707031 5.730469 -2.679688 C 5.746094 -2.644531 5.746094 -2.636719 5.730469 -2.636719 L 5.722656 -2.636719 C 5.6875 -2.636719 5.667969 -2.59375 5.667969 -2.523438 C 5.667969 -2.503906 5.667969 -2.476562 5.667969 -2.453125 C 5.667969 -2.425781 5.667969 -2.390625 5.667969 -2.355469 C 5.667969 -2.320312 5.660156 -2.277344 5.660156 -2.230469 C 5.660156 -2.179688 5.660156 -2.125 5.660156 -2.066406 L 5.660156 -0.5 C 5.335938 -0.308594 4.992188 -0.15625 4.640625 -0.0703125 C 4.585938 -0.0507812 4.542969 -0.0429688 4.5 -0.0429688 C 4.457031 -0.0429688 4.410156 -0.0351562 4.367188 -0.0273438 C 4.316406 -0.0078125 4.269531 0 4.226562 0 C 4.175781 0 4.128906 0.0078125 4.078125 0.015625 C 3.882812 0.0351562 3.65625 0.0429688 3.390625 0.0429688 C 3.164062 0.0429688 2.925781 0.0351562 2.699219 0.015625 C 2.46875 0 2.242188 -0.0429688 2.019531 -0.0976562 C 1.667969 -0.203125 1.378906 -0.359375 1.152344 -0.570312 C 1.011719 -0.710938 0.90625 -0.878906 0.824219 -1.070312 C 0.738281 -1.265625 0.675781 -1.457031 0.640625 -1.667969 C 0.597656 -1.871094 0.570312 -2.082031 0.5625 -2.292969 C 0.542969 -2.503906 0.542969 -2.707031 0.542969 -2.898438 C 0.542969 -3.425781 0.578125 -3.875 0.660156 -4.246094 C 0.730469 -4.613281 0.878906 -4.921875 1.089844 -5.160156 C 1.300781 -5.394531 1.589844 -5.570312 1.960938 -5.675781 C 2.328125 -5.78125 2.804688 -5.84375 3.390625 -5.84375 L 3.8125 -5.84375 C 3.859375 -5.84375 3.902344 -5.835938 3.953125 -5.828125 C 4.078125 -5.808594 4.210938 -5.792969 4.351562 -5.773438 C 4.480469 -5.757812 4.613281 -5.730469 4.738281 -5.695312 C 4.824219 -5.675781 4.914062 -5.652344 5 -5.617188 C 5.210938 -5.554688 5.414062 -5.484375 5.605469 -5.394531 L 5.605469 -5.148438 L 5.527344 -5.148438 C 5.511719 -5.175781 5.484375 -5.195312 5.449219 -5.210938 C 5.394531 -5.265625 5.335938 -5.308594 5.265625 -5.34375 C 5.210938 -5.394531 5.148438 -5.429688 5.078125 -5.449219 C 5.042969 -5.464844 5 -5.484375 4.929688 -5.5 C 4.859375 -5.519531 4.789062 -5.546875 4.710938 -5.5625 C 4.632812 -5.582031 4.5625 -5.589844 4.492188 -5.605469 C 4.421875 -5.625 4.367188 -5.632812 4.332031 -5.640625 C 4.316406 -5.640625 4.296875 -5.652344 4.261719 -5.652344 C 4.246094 -5.660156 4.21875 -5.667969 4.183594 -5.667969 C 3.9375 -5.703125 3.671875 -5.722656 3.390625 -5.722656 C 3.277344 -5.722656 3.171875 -5.710938 3.074219 -5.710938 C 2.96875 -5.710938 2.875 -5.703125 2.785156 -5.695312 C 2.390625 -5.652344 2.082031 -5.546875 1.855469 -5.378906 C 1.625 -5.203125 1.449219 -4.992188 1.335938 -4.738281 C 1.222656 -4.480469 1.152344 -4.191406 1.125 -3.875 C 1.089844 -3.558594 1.082031 -3.234375 1.082031 -2.898438 C 1.082031 -2.722656 1.082031 -2.53125 1.089844 -2.335938 C 1.097656 -2.136719 1.117188 -1.933594 1.152344 -1.738281 C 1.1875 -1.546875 1.230469 -1.351562 1.300781 -1.175781 C 1.363281 -0.992188 1.449219 -0.824219 1.5625 -0.675781 C 1.667969 -0.542969 1.800781 -0.4375 1.941406 -0.367188 C 2.082031 -0.289062 2.242188 -0.226562 2.398438 -0.183594 C 2.558594 -0.140625 2.722656 -0.113281 2.898438 -0.0976562 C 3.066406 -0.078125 3.234375 -0.078125 3.390625 -0.078125 Z M 3.390625 -0.078125" transform="translate(257.806 130.02)"/></g></g></g><g fill="#151F28"><g><g><path d="M 0.871094 -3.988281 C 0.921875 -3.875 1.011719 -3.761719 1.132812 -3.65625 C 1.257812 -3.550781 1.421875 -3.453125 1.625 -3.367188 C 1.679688 -3.339844 1.730469 -3.320312 1.792969 -3.304688 C 1.84375 -3.285156 1.90625 -3.261719 1.976562 -3.234375 C 2.046875 -3.207031 2.117188 -3.179688 2.1875 -3.164062 C 2.257812 -3.144531 2.328125 -3.121094 2.40625 -3.09375 C 2.714844 -3.003906 2.980469 -2.910156 3.191406 -2.804688 C 3.390625 -2.714844 3.558594 -2.601562 3.691406 -2.46875 C 3.832031 -2.328125 3.917969 -2.179688 3.964844 -2.011719 C 4.007812 -1.835938 4.035156 -1.660156 4.035156 -1.476562 C 4.035156 -1.175781 4 -0.921875 3.945312 -0.730469 C 3.894531 -0.535156 3.796875 -0.378906 3.664062 -0.261719 C 3.53125 -0.148438 3.367188 -0.0703125 3.15625 -0.0273438 C 2.945312 0.0273438 2.679688 0.0429688 2.371094 0.0429688 L 2.046875 0.0429688 C 1.835938 0.0429688 1.632812 0.0273438 1.421875 -0.015625 C 1.210938 -0.0507812 1.011719 -0.113281 0.816406 -0.183594 C 0.675781 -0.238281 0.527344 -0.316406 0.378906 -0.402344 L 0.378906 -0.675781 L 0.449219 -0.675781 C 0.484375 -0.660156 0.507812 -0.632812 0.527344 -0.605469 C 0.667969 -0.484375 0.824219 -0.367188 1 -0.28125 C 1.140625 -0.226562 1.292969 -0.183594 1.449219 -0.148438 L 1.503906 -0.148438 C 1.519531 -0.148438 1.546875 -0.140625 1.574219 -0.132812 L 1.625 -0.132812 C 1.644531 -0.132812 1.667969 -0.121094 1.703125 -0.113281 L 1.773438 -0.113281 C 1.792969 -0.113281 1.820312 -0.105469 1.855469 -0.105469 C 1.878906 -0.105469 1.90625 -0.0976562 1.933594 -0.0976562 C 1.949219 -0.0976562 1.976562 -0.0859375 2.011719 -0.0859375 L 2.1875 -0.0859375 C 2.214844 -0.0859375 2.242188 -0.078125 2.277344 -0.078125 C 2.3125 -0.078125 2.335938 -0.078125 2.371094 -0.078125 C 2.636719 -0.078125 2.847656 -0.0976562 3.003906 -0.132812 C 3.15625 -0.175781 3.277344 -0.226562 3.367188 -0.296875 C 3.453125 -0.367188 3.515625 -0.449219 3.566406 -0.542969 C 3.621094 -0.640625 3.648438 -0.753906 3.664062 -0.878906 C 3.683594 -1 3.691406 -1.132812 3.691406 -1.28125 C 3.691406 -1.441406 3.664062 -1.597656 3.621094 -1.738281 C 3.566406 -1.878906 3.480469 -2.011719 3.347656 -2.117188 C 3.226562 -2.242188 3.050781 -2.335938 2.839844 -2.425781 C 2.722656 -2.476562 2.601562 -2.523438 2.46875 -2.566406 C 2.328125 -2.609375 2.1875 -2.652344 2.03125 -2.707031 C 1.949219 -2.734375 1.878906 -2.757812 1.808594 -2.777344 C 1.738281 -2.792969 1.679688 -2.820312 1.617188 -2.847656 C 1.546875 -2.875 1.484375 -2.898438 1.433594 -2.917969 C 1.378906 -2.933594 1.328125 -2.960938 1.273438 -2.988281 C 1.070312 -3.085938 0.90625 -3.191406 0.78125 -3.304688 C 0.648438 -3.4375 0.5625 -3.578125 0.519531 -3.726562 C 0.464844 -3.867188 0.449219 -4.035156 0.449219 -4.226562 C 0.449219 -4.332031 0.449219 -4.4375 0.457031 -4.5625 C 0.457031 -4.675781 0.472656 -4.789062 0.5 -4.902344 C 0.527344 -5.019531 0.5625 -5.125 0.613281 -5.230469 C 0.660156 -5.335938 0.71875 -5.421875 0.800781 -5.5 C 0.976562 -5.652344 1.1875 -5.746094 1.421875 -5.78125 C 1.652344 -5.816406 1.878906 -5.84375 2.109375 -5.84375 L 2.390625 -5.84375 C 2.425781 -5.84375 2.453125 -5.835938 2.488281 -5.828125 C 2.523438 -5.828125 2.546875 -5.816406 2.582031 -5.816406 C 2.609375 -5.816406 2.636719 -5.808594 2.671875 -5.808594 C 2.699219 -5.808594 2.722656 -5.800781 2.757812 -5.800781 C 2.792969 -5.792969 2.820312 -5.78125 2.855469 -5.773438 C 2.917969 -5.757812 2.980469 -5.746094 3.050781 -5.730469 C 3.121094 -5.710938 3.179688 -5.695312 3.25 -5.667969 C 3.3125 -5.652344 3.382812 -5.625 3.472656 -5.589844 C 3.515625 -5.570312 3.558594 -5.5625 3.59375 -5.546875 C 3.628906 -5.527344 3.671875 -5.511719 3.726562 -5.492188 L 3.726562 -5.210938 L 3.648438 -5.210938 C 3.628906 -5.230469 3.613281 -5.246094 3.578125 -5.273438 C 3.507812 -5.335938 3.425781 -5.386719 3.339844 -5.429688 C 3.304688 -5.457031 3.269531 -5.484375 3.214844 -5.5 C 3.191406 -5.511719 3.164062 -5.519531 3.144531 -5.527344 C 3.121094 -5.527344 3.09375 -5.535156 3.066406 -5.554688 C 3.050781 -5.570312 3.015625 -5.582031 2.980469 -5.582031 C 2.953125 -5.589844 2.925781 -5.597656 2.890625 -5.597656 C 2.839844 -5.617188 2.777344 -5.632812 2.707031 -5.652344 C 2.671875 -5.660156 2.644531 -5.667969 2.628906 -5.675781 C 2.601562 -5.675781 2.574219 -5.6875 2.546875 -5.6875 C 2.511719 -5.6875 2.488281 -5.695312 2.46875 -5.695312 C 2.441406 -5.695312 2.417969 -5.703125 2.390625 -5.703125 C 2.355469 -5.710938 2.3125 -5.722656 2.25 -5.722656 L 2.089844 -5.722656 C 1.949219 -5.722656 1.820312 -5.710938 1.6875 -5.703125 C 1.554688 -5.6875 1.433594 -5.660156 1.328125 -5.617188 C 1.210938 -5.570312 1.117188 -5.5 1.035156 -5.414062 C 0.949219 -5.324219 0.886719 -5.203125 0.851562 -5.054688 C 0.835938 -5.007812 0.824219 -4.964844 0.824219 -4.921875 C 0.824219 -4.867188 0.816406 -4.824219 0.808594 -4.773438 C 0.800781 -4.71875 0.789062 -4.65625 0.789062 -4.605469 C 0.789062 -4.542969 0.789062 -4.480469 0.789062 -4.421875 C 0.789062 -4.253906 0.816406 -4.113281 0.871094 -3.988281 Z M 0.871094 -3.988281" transform="translate(268.836 130.02)"/></g></g></g><path stroke-linecap="round" transform="matrix(1.50466 0 0 1.5 87.756 226.185)" fill="none" d="M 0.499804 -0.000889198 L 52.341435 -0.000889198" stroke="#DE89A1"/></svg>